<?xml version="1.0" encoding="UTF-8" standalone="no"?>
<!-- Generated by Microsoft Visio, SVG Export 5G-PICTURE-LOGO_FINAL.svg Page-1 -->

<svg
   xmlns:v="http://schemas.microsoft.com/visio/2003/SVGExtensions/"
   xmlns:dc="http://purl.org/dc/elements/1.1/"
   xmlns:cc="http://creativecommons.org/ns#"
   xmlns:rdf="http://www.w3.org/1999/02/22-rdf-syntax-ns#"
   xmlns:svg="http://www.w3.org/2000/svg"
   xmlns="http://www.w3.org/2000/svg"
   xmlns:xlink="http://www.w3.org/1999/xlink"
   xmlns:sodipodi="http://sodipodi.sourceforge.net/DTD/sodipodi-0.dtd"
   xmlns:inkscape="http://www.inkscape.org/namespaces/inkscape"
   width="8.40765in"
   height="2.9841893in"
   viewBox="0 0 605.35077 214.86168"
   xml:space="preserve"
   class="st8"
   id="svg2"
   version="1.1"
   inkscape:version="0.91 r13725"
   sodipodi:docname="5g-picture-logo.svg"
   style="font-size:12px;overflow:visible;color-interpolation-filters:sRGB;fill:none;fill-rule:evenodd;stroke-linecap:square;stroke-miterlimit:3"><metadata
     id="metadata78"><rdf:RDF><cc:Work
         rdf:about=""><dc:format>image/svg+xml</dc:format><dc:type
           rdf:resource="http://purl.org/dc/dcmitype/StillImage" /><dc:title></dc:title></cc:Work></rdf:RDF></metadata><sodipodi:namedview
     pagecolor="#ffffff"
     bordercolor="#666666"
     borderopacity="1"
     objecttolerance="10"
     gridtolerance="10"
     guidetolerance="10"
     inkscape:pageopacity="0"
     inkscape:pageshadow="2"
     inkscape:window-width="1916"
     inkscape:window-height="1041"
     id="namedview76"
     showgrid="false"
     fit-margin-top="0"
     fit-margin-left="-0.1"
     fit-margin-right="-0.78"
     fit-margin-bottom="-0.08"
     inkscape:zoom="1.451533"
     inkscape:cx="469.6403"
     inkscape:cy="32.374971"
     inkscape:window-x="0"
     inkscape:window-y="37"
     inkscape:window-maximized="0"
     inkscape:current-layer="svg2" /><v:documentProperties
     v:langID="1033"
     v:viewMarkup="false"><v:userDefs><v:ud
         v:nameU="msvNoAutoConnect"
         v:val="VT0(1):26" /></v:userDefs></v:documentProperties><style
     type="text/css"
     id="style4"><![CDATA[
		.st1 {fill:none;stroke:none;stroke-linecap:round;stroke-linejoin:round;stroke-width:0.75}
		.st2 {fill:#7f7f7f;font-family:Calibri;font-size:11.6667em;font-style:italic;font-weight:bold}
		.st3 {fill:#7f7f7f;font-family:Calibri;font-size:10em;font-style:italic;font-weight:bold}
		.st4 {stroke:#7f7f7f;stroke-linecap:round;stroke-linejoin:round;stroke-width:12}
		.st5 {fill:#ea700d;font-family:Calibri;font-size:10em;font-weight:bold}
		.st6 {stroke:url(#grad0-18);stroke-linecap:round;stroke-linejoin:round;stroke-width:9.25}
		.st7 {stroke:url(#grad2-24);stroke-linecap:round;stroke-linejoin:round;stroke-width:9.25}
		.st8 {fill:none;fill-rule:evenodd;font-size:12px;overflow:visible;stroke-linecap:square;stroke-miterlimit:3}
	]]></style><defs
     id="Patterns_And_Gradients"><linearGradient
       id="grad0-18"
       x1="2.3726201"
       y1="308.3934"
       x2="235.92323"
       y2="308.3934"
       gradientTransform="scale(1.8319131,0.54587743)"
       gradientUnits="userSpaceOnUse"
       spreadMethod="pad"><stop
         offset="0"
         stop-color="#ffffff"
         stop-opacity="1"
         id="stop8"
         style="stop-opacity:0;stop-color:#ffffff" /><stop
         offset="0.24"
         stop-color="#fbd7bb"
         stop-opacity="1"
         id="stop10"
         style="stop-color:#fbd7bb;stop-opacity:0.46783626" /><stop
         offset="0.48"
         stop-color="#f5a15e"
         stop-opacity="1"
         id="stop12" /><stop
         offset="0.85"
         stop-color="#ea700d"
         stop-opacity="1"
         id="stop14" /></linearGradient><radialGradient
       id="grad2-24"
       cx="-2.4045036"
       cy="577.13623"
       r="99.719246"
       gradientTransform="scale(1.950869,0.51259207)"
       fx="-2.4045036"
       fy="577.13623"
       gradientUnits="userSpaceOnUse"><stop
         offset="0.27"
         stop-color="#ffffff"
         stop-opacity="1"
         id="stop17"
         style="stop-color:#ffffff;stop-opacity:0" /><stop
         offset="0.41"
         stop-color="#fbd7bb"
         stop-opacity="1"
         id="stop19"
         style="stop-color:#fbd7bb;stop-opacity:0.54385966" /><stop
         offset="0.63"
         stop-color="#f5a15e"
         stop-opacity="1"
         id="stop21" /><stop
         offset="1"
         stop-color="#bb590b"
         stop-opacity="1"
         id="stop23" /></radialGradient><radialGradient
       inkscape:collect="always"
       xlink:href="#grad2-24"
       id="radialGradient4214"
       gradientUnits="userSpaceOnUse"
       gradientTransform="scale(1.950869,0.51259207)"
       cx="-2.4045036"
       cy="577.13623"
       fx="-2.4045036"
       fy="577.13623"
       r="99.719246" /></defs><g
     transform="translate(-7.2000997,-70.59)"
     v:groupContext="shape"
     v:mID="1"
     id="shape1-1"><title
       id="title30">Sheet.1</title><desc
       id="desc32">5</desc><v:textBlock
       v:margins="rect(4,4,4,4)" /><v:textRect
       height="98.8267"
       width="67.76"
       cy="241.799"
       cx="33.875" /><rect
       style="fill:none;stroke:none;stroke-width:0.75;stroke-linecap:round;stroke-linejoin:round"
       id="rect34"
       class="st1"
       height="98.826698"
       width="67.75"
       y="192.38499"
       x="0" /><text
       style="font-style:italic;font-weight:bold;font-size:140.00039673px;font-family:Calibri;fill:#7f7f7f"
       id="text36"
       v:langID="1033"
       class="st2"
       y="283.79999"
       x="4"><v:paragraph
   v:horizAlign="1" /><v:tabList />5</text>
</g><g
     transform="translate(49.4249,-72.6157)"
     v:groupContext="shape"
     v:mID="2"
     id="shape2-4"><title
       id="title39">Sheet.2</title><desc
       id="desc41">G</desc><v:textBlock
       v:margins="rect(4,4,4,4)" /><v:textRect
       height="85.602"
       width="112.25"
       cy="248.411"
       cx="56.125" /><rect
       style="fill:none;stroke:none;stroke-width:0.75;stroke-linecap:round;stroke-linejoin:round"
       id="rect43"
       class="st1"
       height="85.601997"
       width="112.25"
       y="205.61"
       x="0" /><text
       style="font-style:italic;font-weight:bold;font-size:120px;font-family:Calibri;fill:#7f7f7f"
       id="text45"
       v:langID="1033"
       class="st3"
       y="284.41"
       x="17.889999"><v:paragraph
   v:horizAlign="1" /><v:tabList />G</text>
</g><g
     transform="matrix(0.99927171,-0.03815812,0.03815812,0.99927171,79.3989,-160.307)"
     v:groupContext="shape"
     v:mID="3"
     id="shape3-7"><title
       id="title48">Sheet.3</title><path
       style="stroke:#7f7f7f;stroke-width:12;stroke-linecap:round;stroke-linejoin:round"
       inkscape:connector-curvature="0"
       id="path50"
       class="st4"
       d="m 0,291.21 a 39.8037,26.1611 0 0 1 56.29,0" /></g><g
     transform="matrix(0.99961442,0.02776706,-0.02776706,0.99961442,87.3469,-176.054)"
     v:groupContext="shape"
     v:mID="4"
     id="shape4-10"><title
       id="title53">Sheet.4</title><path
       style="stroke:#7f7f7f;stroke-width:12;stroke-linecap:round;stroke-linejoin:round"
       inkscape:connector-curvature="0"
       id="path55"
       class="st4"
       d="m 0,291.21 a 57.6906,41.9632 172.86 0 1 81.03,0" /></g><g
     transform="translate(90.5109,-106.4167)"
     v:groupContext="shape"
     v:mID="5"
     id="shape5-13"><title
       id="title58">Sheet.5</title><desc
       id="desc60">-PICTURE</desc><v:textBlock
       v:margins="rect(4,4,4,4)" /><v:textRect
       height="20"
       width="571.01"
       cy="281.212"
       cx="285.5" /><rect
       style="fill:none;stroke:none;stroke-width:0.75;stroke-linecap:round;stroke-linejoin:round"
       id="rect62"
       class="st1"
       height="20"
       width="571"
       y="271.21201"
       x="0" /><text
       style="font-weight:bold;font-size:120px;font-family:Calibri;fill:#ea700d"
       id="text64"
       v:langID="1033"
       class="st5"
       y="317.20999"
       x="55.52"><v:paragraph
   v:horizAlign="1" /><v:tabList />-PICTURE</text>
</g><g
     transform="translate(172.7999,-168.345)"
     v:groupContext="shape"
     v:mID="7"
     id="shape7-16"><title
       id="title67">Sheet.7</title><path
       style="opacity:1;stroke:url(#grad0-18);stroke-width:9.25;stroke-linecap:round;stroke-linejoin:round"
       inkscape:connector-curvature="0"
       id="path69"
       class="st6"
       d="m 18,289.97 -9,0 a 0.0294671,0.0294671 -180 0 0 -1.93e-4,0.0589 L 190.11,291.21 a 4.5,4.5 -180 0 0 0.03,0 l 22.48,0 a 4.5,4.5 -180 0 0 4.5,-4.5 l 0,-28.24 a 4.5,4.5 0 0 1 4.5,-4.5 l 4.5,0 a 4.5,4.5 0 0 1 4.5,4.5 l 0,9 a 4.5,4.5 -180 0 0 4.51,4.5 l 3.11,0 a 4.5,4.5 -180 0 0 4.49,-4.33 l 1.23,-31.85 a 4.5,4.5 0 0 1 4.5,-4.32 l 9.16,0 a 4.5,4.5 0 0 1 4.5,4.5 l 0,50.74 a 4.5,4.5 -180 0 0 4.51,4.5 l 8.99,0 a 4.5,4.5 -180 0 0 4.5,-4.5 l 0,-109.24 a 4.5,4.5 0 0 1 4.5,-4.5 l 27,0 a 4.5,4.5 0 0 1 4.5,4.5 l 0,72 a 4.5,4.5 -180 0 0 4.51,4.5 l 6.74,0 4.05,0 a 4.5,4.5 -180 0 0 4.5,-4.5 l 0,-45 a 4.5,4.5 0 0 1 4.5,-4.5 l 20.7,0 a 4.5,4.5 0 0 1 4.5,4.5 l 0,82.24 a 4.5,4.5 -180 0 0 4.51,4.5 l 4.49,0 a 4.5,4.5 -180 0 0 4.5,-4.5 l 0,-19.24 a 4.5,4.5 0 0 1 4.5,-4.5 l 18,0 a 4.5,4.5 0 0 1 4.5,4.5 l 0,19.22 a 4.5,4.5 -180 0 0 4.53,4.5 l 16.85,-0.1" /></g><g
     transform="translate(165.9559,-180.997)"
     v:groupContext="shape"
     v:mID="9"
     id="shape9-22"><title
       id="title72">Sheet.9</title><path
       style="stroke:url(#radialGradient4214);stroke-width:9.25;stroke-linecap:round;stroke-linejoin:round"
       inkscape:connector-curvature="0"
       id="path74"
       class="st7"
       d="m 0,263.95 82.06,0 a 18,18 0 0 1 7.68,1.72 l 38.53,18.18 a 2.7014,2.7014 0 0 1 0.2,4.78 l -0.33,0.19 a 18,18 0 0 1 -8.96,2.39 l -91.1,0" /></g></svg>