<?xml version="1.0" encoding="UTF-8" standalone="no"?>
<svg
   xmlns:svg="http://www.w3.org/2000/svg"
   xmlns="http://www.w3.org/2000/svg"
   viewBox="0 0 229.44 216.32001"
   height="216.32001"
   width="229.44"
   version="1.1">
  <g style="fill:#0093b7">
    <path d="M 32.479368,64.656281 50.66309,46.678175 81.815206,47.124132 98.910223,64.656284 65.694799,97.871712 Z" />
    <path d="M 49.829461,40.725116 65.694798,24.859784 81.260994,40.725114 Z" />
    <rect
	transform="rotate(-45)"
	y="158.58276"
	x="14.264115"
	height="46.973709"
	width="46.973709" />
    <rect
	transform="rotate(-45)"
	y="210.93488"
	x="12.677685"
	height="49.723518"
	width="49.723518" />
    <path d="M 26.208375,65.254557 65.769576,104.74097 105.62992,64.955417 86.559774,45.810489 l 65.885476,0.29914 0.29914,20.042349 -35.89674,36.195882 35.89674,36.19588 -0.29914,33.20449 h -45.54399 l -29.689597,-29.61481 -29.689597,29.31567 -21.014551,0.29914 z" />
    <path d="M 26.507515,46.10963 45.054168,45.511351 26.208375,64.357138 Z"/>
  </g>
  <circle
      r="100.80165"
      cy="108.48023"
      cx="106.2282"
      style="fill:none;stroke:#0093b7;stroke-width:8.33500004" />
</svg>
