<?xml version="1.0" encoding="UTF-8" standalone="no"?>
<!-- Created with Inkscape (http://www.inkscape.org/) -->
<svg id="svg3004" xmlns:rdf="http://www.w3.org/1999/02/22-rdf-syntax-ns#" xmlns="http://www.w3.org/2000/svg" xml:space="preserve" viewBox="0 0 35.425 50.188" version="1.1" xmlns:cc="http://creativecommons.org/ns#" xmlns:dc="http://purl.org/dc/elements/1.1/"><metadata id="metadata3010"><rdf:RDF><cc:Work rdf:about=""><dc:format>image/svg+xml</dc:format><dc:type rdf:resource="http://purl.org/dc/dcmitype/StillImage"/><dc:title/></cc:Work></rdf:RDF></metadata><defs id="defs3008"><clipPath id="clipPath3020"><path id="path3022" d="m0,401.54,280,0,0-400-280,0,0,400"/></clipPath></defs><g id="g3012" transform="matrix(1.25,0,0,-1.25,0,50.1875)"><g id="g3014" transform="scale(0.1,0.1)"><g id="g3016"><g id="g3018" clip-path="url(#clipPath3020)"><path id="path3024" fill-rule="nonzero" fill="#087fbf" d="m39.062,277.46-34.219-34.082,0-238.57,239.53,0,34.219,34.086,0,238.56-239.53,0"/><path id="path3026" stroke-linejoin="miter" d="m39.062,277.46-34.219-34.082,0-238.57,239.53,0,34.219,34.086,0,238.56-239.53,0z" stroke="#FFF" stroke-linecap="butt" stroke-miterlimit="4" stroke-dasharray="none" stroke-width="4" fill="none"/><path id="path3028" fill-rule="nonzero" fill="#087fbf" d="m4.8438,243.38,239.53,0,34.219,34.082-239.53,0-34.219-34.082"/><path id="path3030" stroke-linejoin="miter" d="m4.8438,243.38,239.53,0,34.219,34.082-239.53,0-34.219-34.082z" stroke="#FFF" stroke-linecap="butt" stroke-miterlimit="4" stroke-dasharray="none" stroke-width="4" fill="none"/><path id="path3032" fill-rule="nonzero" fill="#087fbf" d="m244.38,243.38,34.219,34.082,0-238.56-34.219-34.086,0,238.57"/><path id="path3034" stroke-linejoin="miter" d="m244.38,243.38,34.219,34.082,0-238.56-34.219-34.086,0,238.57z" stroke="#FFF" stroke-linecap="butt" stroke-miterlimit="4" stroke-dasharray="none" stroke-width="4" fill="none"/><path id="path3036" fill-rule="nonzero" fill="#087fbf" d="m39.062,277.46-34.219-34.082,0-238.57,239.53,0,34.219,34.086,0,238.56-239.53,0"/><path id="path3038" stroke-linejoin="miter" d="m39.062,277.46-34.219-34.082,0-238.57,239.53,0,34.219,34.086,0,238.56-239.53,0z" stroke="#FFF" stroke-linecap="butt" stroke-miterlimit="4" stroke-dasharray="none" stroke-width="4" fill="none"/><path id="path3040" fill-rule="nonzero" fill="#087fbf" d="m4.8438,243.38,239.53,0,34.219,34.082"/><path id="path3042" stroke-linejoin="miter" d="m4.8438,243.38,239.53,0,34.219,34.082" stroke="#FFF" stroke-linecap="butt" stroke-miterlimit="4" stroke-dasharray="none" stroke-width="4" fill="none"/><path id="path3044" fill-rule="nonzero" fill="#087fbf" d="m244.38,243.38,0-238.57"/><path id="path3046" stroke-linejoin="miter" d="m244.38,243.38,0-238.57" stroke="#FFF" stroke-linecap="butt" stroke-miterlimit="4" stroke-dasharray="none" stroke-width="4" fill="none"/><path id="path3048" fill-rule="nonzero" fill="#087fbf" d="m39.062,396.73-34.219-34.082,0-119.27,239.53,0,34.219,34.082,0,119.27-239.53,0"/><path id="path3050" stroke-linejoin="miter" d="m39.062,396.73-34.219-34.082,0-119.27,239.53,0,34.219,34.082,0,119.27-239.53,0z" stroke="#FFF" stroke-linecap="butt" stroke-miterlimit="4" stroke-dasharray="none" stroke-width="4" fill="none"/><path id="path3052" fill-rule="nonzero" fill="#087fbf" d="m244.38,362.65,34.219,34.082,0-119.27-34.219-34.082,0,119.27"/><path id="path3054" stroke-linejoin="miter" d="m244.38,362.65,34.219,34.082,0-119.27-34.219-34.082,0,119.27z" stroke="#FFF" stroke-linecap="butt" stroke-miterlimit="4" stroke-dasharray="none" stroke-width="4" fill="none"/><path id="path3056" fill-rule="nonzero" fill="#087fbf" d="m39.062,396.73-34.219-34.082,0-119.27,239.53,0,34.219,34.082,0,119.27-239.53,0"/><path id="path3058" stroke-linejoin="miter" d="m39.062,396.73-34.219-34.082,0-119.27,239.53,0,34.219,34.082,0,119.27-239.53,0z" stroke="#FFF" stroke-linecap="butt" stroke-miterlimit="4" stroke-dasharray="none" stroke-width="4" fill="none"/><path id="path3060" fill-rule="nonzero" fill="#087fbf" d="m244.38,243.38,0,119.27-239.53,0"/><path id="path3062" stroke-linejoin="miter" d="m244.38,243.38,0,119.27-239.53,0" stroke="#FFF" stroke-linecap="butt" stroke-miterlimit="4" stroke-dasharray="none" stroke-width="4" fill="none"/><path id="path3064" fill-rule="nonzero" fill="#FFF" d="m21.953,311.53,68.438,0,0,34.086-68.438,0,0-34.086z"/><path id="path3066" fill-rule="nonzero" fill="#FFF" d="m39.062,38.898,171.09,0,0,170.4-171.09,0,0-170.4z"/><path id="path3068" stroke-linejoin="miter" d="m39.062,38.898,171.09,0,0,170.4-171.09,0,0-170.4z" stroke="#FFF" stroke-linecap="butt" stroke-miterlimit="1" stroke-dasharray="none" stroke-width="4" fill="none"/><path id="path3070" fill-rule="nonzero" fill="#FFF" d="m158.83,311.53,68.438,0,0,34.086-68.438,0,0-34.086z"/><path id="path3072" fill-rule="nonzero" fill="#FFF" d="m21.953,260.42,68.438,0,0,34.07-68.438,0,0-34.07z"/><path id="path3074" fill-rule="nonzero" fill="#FFF" d="m158.83,260.42,68.438,0,0,34.07-68.438,0,0-34.07z"/><path id="path3076" fill-rule="nonzero" fill="#231f20" d="m90.391,328.57,68.437,0"/><path id="path3078" stroke-linejoin="miter" d="m90.391,328.57,68.437,0" stroke="#FFF" stroke-linecap="butt" stroke-miterlimit="1" stroke-dasharray="none" stroke-width="4" fill="none"/><path id="path3080" fill-rule="nonzero" fill="#231f20" d="m90.391,277.46,68.437,0"/><path id="path3082" stroke-linejoin="miter" d="m90.391,277.46,68.437,0" stroke="#FFF" stroke-linecap="butt" stroke-miterlimit="1" stroke-dasharray="none" stroke-width="4" fill="none"/><path id="path3084" fill-rule="nonzero" fill="#231f20" d="m90.391,294.49,68.437,17.039"/><path id="path3086" stroke-linejoin="miter" d="m90.391,294.49,68.437,17.039" stroke="#FFF" stroke-linecap="butt" stroke-miterlimit="1" stroke-dasharray="none" stroke-width="4" fill="none"/><path id="path3088" fill-rule="nonzero" fill="#231f20" d="M90.391,311.53,158.83,294.49"/><path id="path3090" stroke-linejoin="miter" d="M90.391,311.53,158.83,294.49" stroke="#FFF" stroke-linecap="butt" stroke-miterlimit="1" stroke-dasharray="none" stroke-width="4" fill="none"/><path id="path3092" fill-rule="nonzero" fill="#087fbf" d="m124.61,175.22c27.801,0,51.329-21.297,51.329-51.113,0-27.696-23.528-51.122-51.329-51.122-29.941,0-51.328,23.426-51.328,51.122,0,29.816,21.387,51.113,51.328,51.113"/><path id="path3094" stroke-linejoin="miter" d="m124.61,175.22c27.801,0,51.329-21.297,51.329-51.113,0-27.696-23.528-51.122-51.329-51.122-29.941,0-51.328,23.426-51.328,51.122,0,29.816,21.387,51.113,51.328,51.113" stroke="#FFF" stroke-linecap="butt" stroke-miterlimit="4" stroke-dasharray="none" stroke-width="4" fill="none"/><path id="path3096" fill-rule="nonzero" fill="#FFF" d="m124.61,141.13c8.555,0,17.11-6.387,17.11-17.031,0-8.528-8.555-17.04-17.11-17.04-10.695,0-17.109,8.512-17.109,17.04,0,10.644,6.414,17.031,17.109,17.031"/><path id="path3098" stroke-linejoin="miter" d="m124.61,141.13c8.555,0,17.11-6.387,17.11-17.031,0-8.528-8.555-17.04-17.11-17.04-10.695,0-17.109,8.512-17.109,17.04,0,10.644,6.414,17.031,17.109,17.031" stroke="#FFF" stroke-linecap="butt" stroke-miterlimit="1" stroke-dasharray="none" stroke-width="4" fill="none"/></g></g></g></g></svg>
