<?xml version="1.0" encoding="UTF-8" standalone="no"?>
<!-- Created with Inkscape (http://www.inkscape.org/) -->
<svg xmlns:rdf="http://www.w3.org/1999/02/22-rdf-syntax-ns#" xmlns="http://www.w3.org/2000/svg" xml:space="preserve" viewBox="0 0 19.7125 34.5625" version="1.1" xmlns:cc="http://creativecommons.org/ns#" xmlns:dc="http://purl.org/dc/elements/1.1/"><metadata><rdf:RDF><cc:Work rdf:about=""><dc:format>image/svg+xml</dc:format><dc:type rdf:resource="http://purl.org/dc/dcmitype/StillImage"/><dc:title/></cc:Work></rdf:RDF></metadata><g transform="matrix(1.25,0,0,-1.25,0,34.5625)"><g transform="scale(.1)"><g fill="#02709f"><path d="m143.145 158.242c2.335 8.477 12.121 50.832 12.531 56.719 0.429 5.883-1.75 13.285-4.895 14.781 0.164 2.113 0.215 3.285 0.215 3.285-0.769 0.317-1.555 0.621-2.324 0.93l0.242-0.086s2.258 9.445 3.559 16.008c2.468 12.582 2.722 18.926 2.722 18.926-0.05 1.726-0.5 3.25-2.09 3.691l-7.316 2.02c-1.601 0.441-2.676-0.555-3.687-2.094 0 0-2.832-5.863-6.875-17.793-2.153-6.324-4.204-14.266-4.204-14.266l0.098-0.047c-4.363 1.426-8.785 2.77-13.277 4.004-11.406 3.153-22.8323 5.575-34.2424 7.305 0 0-0.5664-1.027-1.5118-2.93-3.457 0.332-9.1289-4.902-11.789-10.175-2.6445-5.266-15.9844-46.641-18.3281-55.118-2.3321-8.48-6.8438-30.043-8.8477-40.769-2.0039-10.738-3.7969-29.449-10.6953-54.4299-4.0703-14.7265-10.6445-36.6797-14.0899-45.8086-0.8984-2.3945-8.1054-14.5703 2.3555-18.7031 10.2891-4.0703 25.6016-8.4648 33.336-10.6055 7.7382-2.1289 23.125-6.2109 34.0546-7.99606 11.0938-1.80859 11.1602 12.33206 11.6133 14.85156 1.7388 9.6094 7.3398 31.8164 11.4058 46.543 6.891 24.9922 14.942 41.9726 18.731 52.2186 3.785 10.235 10.977 31.059 13.309 39.539"/><path d="m143.762 268.57s-3.403 0.996-6.321 1.801c-2.605 0.723-6.179 1.645-6.179 1.645"/><path d="m131.777 157.105c2.332 8.473 12.11 50.829 12.532 56.719 0.425 5.883-1.758 13.285-4.895 14.774 0.164 2.121 0.203 3.293 0.203 3.293-0.769 0.312-1.543 0.613-2.312 0.922l0.234-0.079s2.258 9.434 3.555 16c2.469 12.59 2.722 18.934 2.722 18.934-0.039 1.727-0.488 3.242-2.086 3.684l-7.304 2.019c-1.606 0.438-2.68-0.555-3.696-2.09 0 0-2.832-5.859-6.875-17.789-2.144-6.328-4.207-14.277-4.207-14.277l0.11-0.035c-4.367 1.425-8.789 2.765-13.281 4-11.4067 3.148-22.8325 5.574-34.2426 7.308 0 0-0.5664-1.035-1.5117-2.929-3.4571 0.328-9.1289-4.907-11.7891-10.18-2.6523-5.27-15.9922-46.641-18.3281-55.117-2.3321-8.481-6.8438-30.039-8.8477-40.774-2-10.726-3.7969-29.437-10.7031-54.4372-4.0625-14.7266-10.6445-36.6602-14.08204-45.8008-0.91016-2.3906-8.10547-14.5703 2.35156-18.7109 10.30468-4.0625 25.60548-8.4571 33.33988-10.586 7.7382-2.13669 23.1172-6.21091 34.0547-8.00779 11.0937-1.8164 11.164 12.33599 11.6132 14.85549 1.7383 9.5976 7.3399 31.8242 11.4024 46.543 6.8986 24.9882 14.9456 41.9802 18.7346 52.2152 3.789 10.234 10.965 31.062 13.308 39.546"/><path d="m51.8281 97.7266c-1.1914-4.3477-5.707-6.8868-10.0429-5.6953-4.3438 1.2031-6.8907 5.6953-5.6993 10.0387 1.2071 4.356 5.6993 6.895 10.0352 5.703 4.3555-1.199 6.9062-5.703 5.707-10.0464"/><path d="m72.3945 89.0156c-1.1914-4.3476-5.6836-6.8867-10.0429-5.6953-4.3321 1.1914-6.8828 5.6953-5.6836 10.0391 1.1914 4.3359 5.6836 6.8946 10.0312 5.6953 4.3438-1.2031 6.9024-5.6953 5.6953-10.0391"/><path d="m94.582 85.918c-1.1914-4.336-5.6836-6.8828-10.0429-5.6836-4.3321 1.2031-6.8907 5.6836-5.6914 10.039 1.1992 4.3477 5.6914 6.8946 10.039 5.6954 4.3438-1.2032 6.9024-5.6954 5.6953-10.0508"/><path d="m46.8867 79.7969c-1.2148-4.3477-5.707-6.8946-10.0508-5.6953-4.3476 1.1914-6.8828 5.6953-5.6914 10.039 1.1914 4.336 5.6914 6.8946 10.0352 5.6914 4.3398-1.1992 6.8984-5.6914 5.707-10.0351"/><path d="m67.4531 71.0742c-1.1914-4.3359-5.707-6.8828-10.0429-5.6836-4.3438 1.1914-6.8907 5.6836-5.6993 10.0313 1.2071 4.3437 5.6993 6.9023 10.0352 5.6914 4.3555-1.1914 6.8984-5.6836 5.707-10.0391"/><path d="m89.6406 67.9961c-1.2031-4.3438-5.707-6.9023-10.0429-5.6992-4.3438 1.1992-6.8907 5.6992-5.6993 10.0469 1.2071 4.3359 5.6993 6.8945 10.0352 5.6835 4.3555-1.1914 6.8984-5.6835 5.707-10.0312"/><path d="m41.9219 61.8555c-1.1914-4.336-5.6836-6.8828-10.0352-5.6836-4.3398 1.1914-6.8984 5.6836-5.6836 10.0312 1.1914 4.3438 5.6836 6.9024 10.0274 5.7032 4.3476-1.2032 6.8945-5.6954 5.6914-10.0508"/><path d="m62.5 53.1445c-1.2031-4.3359-5.6953-6.8945-10.0391-5.6914-4.3476 1.1992-6.8828 5.6914-5.6914 10.0391 1.1914 4.3437 5.6914 6.8828 10.0352 5.6914 4.3398-1.1914 6.8984-5.6914 5.6953-10.0391"/><path d="m84.6875 50.0586c-1.2031-4.3359-5.6953-6.8945-10.0391-5.6836-4.3476 1.1914-6.8945 5.6836-5.6914 10.0391 1.1914 4.3359 5.6914 6.8945 10.0352 5.6836 4.3398-1.1914 6.8984-5.6836 5.6953-10.0391"/><path d="m36.9805 43.9375c-1.2071-4.3477-5.6992-6.9062-10.0352-5.7031-4.3555 1.1992-6.8984 5.6914-5.707 10.039 1.2148 4.3438 5.707 6.9024 10.043 5.6914 4.3437-1.1914 6.8906-5.6835 5.6992-10.0273zm20.5664-8.7227c-1.1914-4.3437-5.6914-6.8945-10.0352-5.7031-4.3398 1.211-6.8984 5.7031-5.6953 10.0391 1.2031 4.3555 5.6953 6.8945 10.0391 5.7031 4.3476-1.1992 6.8945-5.7031 5.6914-10.0391"/><path d="m79.7344 32.1289c-1.1914-4.3437-5.6914-6.8945-10.0352-5.6914-4.3398 1.1992-6.8984 5.6914-5.6953 10.0391 1.2031 4.3437 5.6953 6.8828 10.0391 5.6914 4.3476-1.1992 6.8828-5.6836 5.6914-10.0391"/><path d="m47.207 23.0977c-0.1093-0.4024-0.8086-0.5664-1.5703-0.3633-0.7539 0.2148-1.2734 0.7148-1.1719 1.1133 0.1172 0.4101 0.8282 0.5664 1.5782 0.3515 0.7617-0.1953 1.2734-0.7031 1.164-1.1015zm-2.7422 0.75-2.5703-9.336m3.0157 8.5664-2.4102-8.7304m4.707 8.75-2.5781-9.3477m1.8047 8.9063-2.4023-8.7305m18.9101 144.3122-1.7812-6.468m2.5 6.269-1.8164-6.562m38.4372-3.547-1.7849-6.469m1.0625 6.664-1.8164-6.559"/><path d="m137.539 232.734s2.266 9.434 3.555 16c2.469 12.59 2.722 18.934 2.722 18.934-0.039 1.727-0.488 3.242-2.086 3.684l-7.304 2.019c-1.606 0.438-2.68-0.555-3.696-2.09 0 0-2.832-5.859-6.875-17.789-2.144-6.328-4.207-14.277-4.207-14.277m-2.863-92.735c-0.445-1.597-2.09-2.523-3.687-2.085l-62.9691 17.375c-1.6016 0.441-2.5391 2.089-2.0937 3.683l10.9804 39.817c0.4492 1.597 2.086 2.523 3.6914 2.085l62.969-17.378c1.597-0.446 2.539-2.086 2.09-3.684l-10.981-39.813zm21.613 89.668c-5.847 2.274-11.816 4.379-17.878 6.293m-46.8481 7.825s-15.0117-30.637-23.5821-61.715c-10.2187-36.996-11.6992-49.317-10.1601-66.5 0.3125-3.555 3.832-7.879 7.7656-8.965 1.5508-0.43 3.3594-0.918 4.1094-1.133 0.7656-0.215 3.6562-0.918 6.0664-2.793s2.9961-2.363 4.4219-3.133c1.4258-0.781 1.6211-1.281 5.6679-2.394 4.043-1.121 4.4805-0.801 6.0899-0.86 1.6211-0.058 2.3828 0.059 5.4219 0.43 3.0273 0.371 5.8711-0.508 6.6289-0.711 0.7539-0.207 2.5586-0.715 4.1132-1.144 3.9375-1.082 9.1719 0.84 11.2692 3.722 10.125 13.953 15.164 25.301 25.379 62.293 8.575 31.071 11.407 65.075 11.407 65.075m-73.4262 2.46c12.0781-1.738 25.1093-4.515 37.1762-7.847 12.082-3.336 24.691-7.633 35.949-12.332"/><path d="m91.8633 121.836c-2.6719-9.676-12.6953-15.359-22.3828-12.695-9.6758 2.675-15.3711 12.695-12.6953 22.382 2.6796 9.684 12.6953 15.364 22.3828 12.692 9.6718-2.672 15.3554-12.692 12.6953-22.379zm-33.5156 29.844c2.4414-0.672 4.3164-1.688 5.2187-2.293 0.9063-0.602 1.1914-1.407 0.4258-1.922-0.8359-0.547-2.3399-1.641-3.1445-2.356-0.9375-0.832-1.6211-1.066-3.0235-0.25-2.4219 1.395-7.6015 5.121-8.8906 6.879-0.6602 0.883-0.0352 1.223 1.2734 1.293 1.875 0.106 5.4649-0.617 8.1407-1.351zm-12.918-19.141c1.3398-0.449 4.6094-2.129 5.5664-2.82 0.957-0.696 2.4531-2.188 2.3125-4.004-0.1523-2.141-0.0195-6.535 0.8828-8.02 1.1914-1.933 1.0313-2.754-0.6641-2.422-1.371 0.254-4.9062 1.524-5.9218 2.012-1.0039 0.488-2.4688 1.367-2.9297 2.735-0.957 2.882-1.1485 8.691-0.6602 11.543 0.1953 1.23 0.7032 1.21 1.4141 0.976"/><path d="m100.867 139.945c-2.449 0.68-4.5857 0.77-5.66 0.711-1.0859-0.058-1.75-0.601-1.3515-1.426 0.4414-0.91 1.164-2.613 1.4961-3.644 0.3789-1.191 0.8281-1.746 2.4726-1.777 2.7808-0.039 9.1408 0.507 11.1528 1.355 1.011 0.422 0.64 1.039-0.43 1.766-1.555 1.043-5.024 2.281-7.68 3.015zm1.274-23.05c-1.387 0.312-5.0512 0.527-6.2308 0.429-1.1758-0.105-3.2266-0.625-4.0469-2.246-0.9531-1.922-3.3203-5.625-4.8594-6.433-2.0156-1.047-2.3047-1.836-0.6641-2.434 1.2891-0.469 4.9805-1.199 6.0899-1.289 1.1367-0.098 2.8359-0.106 3.9258 0.84 2.3047 1.972 5.4535 6.875 6.4965 9.551 0.461 1.164 0.031 1.406-0.711 1.582"/><path d="m99.1094 221.84 5.9956 21.719"/><path d="m101.105 221.293 5.997 21.719"/><path d="m143.145 158.242c2.335 8.477 12.121 50.832 12.531 56.719 0.429 5.883-1.75 13.285-4.895 14.781 0.164 2.113 0.215 3.285 0.215 3.285-0.769 0.317-1.555 0.621-2.324 0.93l0.242-0.086s2.258 9.445 3.559 16.008c2.468 12.582 2.722 18.926 2.722 18.926-0.05 1.726-0.5 3.25-2.09 3.691l-7.316 2.02c-1.601 0.441-2.676-0.555-3.687-2.094 0 0-2.832-5.863-6.875-17.793-2.153-6.324-4.204-14.266-4.204-14.266l0.098-0.047c-4.363 1.426-8.785 2.77-13.277 4.004-11.406 3.153-22.8323 5.575-34.2424 7.305 0 0-0.5664-1.027-1.5118-2.93-3.457 0.332-9.1289-4.902-11.789-10.175-2.6445-5.266-15.9844-46.641-18.3281-55.118-2.3321-8.48-6.8438-30.043-8.8477-40.769-2.0039-10.738-3.7969-29.449-10.6953-54.4299-4.0703-14.7265-10.6445-36.6797-14.0899-45.8086-0.8984-2.3945-8.1054-14.5703 2.3555-18.7031 10.2891-4.0703 25.6016-8.4648 33.336-10.6055 7.7382-2.1289 23.125-6.2109 34.0546-7.99606 11.0938-1.80859 11.1602 12.33206 11.6133 14.85156 1.7388 9.6094 7.3398 31.8164 11.4058 46.543 6.891 24.9922 14.942 41.9726 18.731 52.2186 3.785 10.235 10.977 31.059 13.309 39.539"/><path d="m143.762 268.57s-3.403 0.996-6.321 1.801c-2.605 0.723-6.179 1.645-6.179 1.645"/></g><path d="m143.762 268.57s-3.403 0.996-6.321 1.801c-2.605 0.723-6.179 1.645-6.179 1.645" stroke="#fff" stroke-width="4" fill="none"/><path d="m131.777 157.105c2.332 8.473 12.11 50.829 12.532 56.719 0.425 5.883-1.758 13.285-4.895 14.774 0.164 2.121 0.203 3.293 0.203 3.293-0.769 0.312-1.543 0.613-2.312 0.922l0.234-0.079s2.258 9.434 3.555 16c2.469 12.59 2.722 18.934 2.722 18.934-0.039 1.727-0.488 3.242-2.086 3.684l-7.304 2.019c-1.606 0.438-2.68-0.555-3.696-2.09 0 0-2.832-5.859-6.875-17.789-2.144-6.328-4.207-14.277-4.207-14.277l0.11-0.035c-4.367 1.425-8.789 2.765-13.281 4-11.4067 3.148-22.8325 5.574-34.2426 7.308 0 0-0.5664-1.035-1.5117-2.929-3.4571 0.328-9.1289-4.907-11.7891-10.18-2.6523-5.27-15.9922-46.641-18.3281-55.117-2.3321-8.481-6.8438-30.039-8.8477-40.774-2-10.726-3.7969-29.437-10.7031-54.4372-4.0625-14.7266-10.6445-36.6602-14.08204-45.8008-0.91016-2.3906-8.10547-14.5703 2.35156-18.7109 10.30468-4.0625 25.60548-8.4571 33.33988-10.586 7.7382-2.13669 23.1172-6.21091 34.0547-8.00779 11.0937-1.8164 11.164 12.33599 11.6132 14.85549 1.7383 9.5976 7.3399 31.8242 11.4024 46.543 6.8986 24.9882 14.9456 41.9802 18.7346 52.2152 3.789 10.234 10.965 31.062 13.308 39.546" fill="#02709f"/><path d="m131.777 157.105c2.332 8.473 12.11 50.829 12.532 56.719 0.425 5.883-1.758 13.285-4.895 14.774 0.164 2.121 0.203 3.293 0.203 3.293-0.769 0.312-1.543 0.613-2.312 0.922l0.234-0.079s2.258 9.434 3.555 16c2.469 12.59 2.722 18.934 2.722 18.934-0.039 1.727-0.488 3.242-2.086 3.684l-7.304 2.019c-1.606 0.438-2.68-0.555-3.696-2.09 0 0-2.832-5.859-6.875-17.789-2.144-6.328-4.207-14.277-4.207-14.277l0.11-0.035c-4.367 1.425-8.789 2.765-13.281 4-11.4067 3.148-22.8325 5.574-34.2426 7.308 0 0-0.5664-1.035-1.5117-2.929-3.4571 0.328-9.1289-4.907-11.7891-10.18-2.6523-5.27-15.9922-46.641-18.3281-55.117-2.3321-8.481-6.8438-30.039-8.8477-40.774-2-10.726-3.7969-29.437-10.7031-54.4372-4.0625-14.7266-10.6445-36.6602-14.08204-45.8008-0.91016-2.3906-8.10547-14.5703 2.35156-18.7109 10.30468-4.0625 25.60548-8.4571 33.33988-10.586 7.7382-2.13669 23.1172-6.21091 34.0547-8.00779 11.0937-1.8164 11.164 12.33599 11.6132 14.85549 1.7383 9.5976 7.3399 31.8242 11.4024 46.543 6.8986 24.9882 14.9456 41.9802 18.7346 52.2152 3.789 10.234 10.965 31.062 13.308 39.546z" stroke="#fff" stroke-width="4" fill="none"/><path d="m51.8281 97.7266c-1.1914-4.3477-5.707-6.8868-10.0429-5.6953-4.3438 1.2031-6.8907 5.6953-5.6993 10.0387 1.2071 4.356 5.6993 6.895 10.0352 5.703 4.3555-1.199 6.9062-5.703 5.707-10.0464" fill="#02709f"/><path d="m51.8281 97.7266c-1.1914-4.3477-5.707-6.8868-10.0429-5.6953-4.3438 1.2031-6.8907 5.6953-5.6993 10.0387 1.2071 4.356 5.6993 6.895 10.0352 5.703 4.3555-1.199 6.9062-5.703 5.707-10.0464z" stroke="#fff" stroke-width="4" fill="none"/><path d="m72.3945 89.0156c-1.1914-4.3476-5.6836-6.8867-10.0429-5.6953-4.3321 1.1914-6.8828 5.6953-5.6836 10.0391 1.1914 4.3359 5.6836 6.8946 10.0312 5.6953 4.3438-1.2031 6.9024-5.6953 5.6953-10.0391" fill="#02709f"/><path d="m72.3945 89.0156c-1.1914-4.3476-5.6836-6.8867-10.0429-5.6953-4.3321 1.1914-6.8828 5.6953-5.6836 10.0391 1.1914 4.3359 5.6836 6.8946 10.0312 5.6953 4.3438-1.2031 6.9024-5.6953 5.6953-10.0391z" stroke="#fff" stroke-width="4" fill="none"/><path d="m94.582 85.918c-1.1914-4.336-5.6836-6.8828-10.0429-5.6836-4.3321 1.2031-6.8907 5.6836-5.6914 10.039 1.1992 4.3477 5.6914 6.8946 10.039 5.6954 4.3438-1.2032 6.9024-5.6954 5.6953-10.0508" fill="#02709f"/><path d="m94.582 85.918c-1.1914-4.336-5.6836-6.8828-10.0429-5.6836-4.3321 1.2031-6.8907 5.6836-5.6914 10.039 1.1992 4.3477 5.6914 6.8946 10.039 5.6954 4.3438-1.2032 6.9024-5.6954 5.6953-10.0508z" stroke="#fff" stroke-width="4" fill="none"/><path d="m46.8867 79.7969c-1.2148-4.3477-5.707-6.8946-10.0508-5.6953-4.3476 1.1914-6.8828 5.6953-5.6914 10.039 1.1914 4.336 5.6914 6.8946 10.0352 5.6914 4.3398-1.1992 6.8984-5.6914 5.707-10.0351" fill="#02709f"/><path d="m46.8867 79.7969c-1.2148-4.3477-5.707-6.8946-10.0508-5.6953-4.3476 1.1914-6.8828 5.6953-5.6914 10.039 1.1914 4.336 5.6914 6.8946 10.0352 5.6914 4.3398-1.1992 6.8984-5.6914 5.707-10.0351z" stroke="#fff" stroke-width="4" fill="none"/><path d="m67.4531 71.0742c-1.1914-4.3359-5.707-6.8828-10.0429-5.6836-4.3438 1.1914-6.8907 5.6836-5.6993 10.0313 1.2071 4.3437 5.6993 6.9023 10.0352 5.6914 4.3555-1.1914 6.8984-5.6836 5.707-10.0391" fill="#02709f"/><path d="m67.4531 71.0742c-1.1914-4.3359-5.707-6.8828-10.0429-5.6836-4.3438 1.1914-6.8907 5.6836-5.6993 10.0313 1.2071 4.3437 5.6993 6.9023 10.0352 5.6914 4.3555-1.1914 6.8984-5.6836 5.707-10.0391z" stroke="#fff" stroke-width="4" fill="none"/><path d="m89.6406 67.9961c-1.2031-4.3438-5.707-6.9023-10.0429-5.6992-4.3438 1.1992-6.8907 5.6992-5.6993 10.0469 1.2071 4.3359 5.6993 6.8945 10.0352 5.6835 4.3555-1.1914 6.8984-5.6835 5.707-10.0312" fill="#02709f"/><path d="m89.6406 67.9961c-1.2031-4.3438-5.707-6.9023-10.0429-5.6992-4.3438 1.1992-6.8907 5.6992-5.6993 10.0469 1.2071 4.3359 5.6993 6.8945 10.0352 5.6835 4.3555-1.1914 6.8984-5.6835 5.707-10.0312z" stroke="#fff" stroke-width="4" fill="none"/><path d="m41.9219 61.8555c-1.1914-4.336-5.6836-6.8828-10.0352-5.6836-4.3398 1.1914-6.8984 5.6836-5.6836 10.0312 1.1914 4.3438 5.6836 6.9024 10.0274 5.7032 4.3476-1.2032 6.8945-5.6954 5.6914-10.0508" fill="#02709f"/><path d="m41.9219 61.8555c-1.1914-4.336-5.6836-6.8828-10.0352-5.6836-4.3398 1.1914-6.8984 5.6836-5.6836 10.0312 1.1914 4.3438 5.6836 6.9024 10.0274 5.7032 4.3476-1.2032 6.8945-5.6954 5.6914-10.0508z" stroke="#fff" stroke-width="4" fill="none"/><path d="m62.5 53.1445c-1.2031-4.3359-5.6953-6.8945-10.0391-5.6914-4.3476 1.1992-6.8828 5.6914-5.6914 10.0391 1.1914 4.3437 5.6914 6.8828 10.0352 5.6914 4.3398-1.1914 6.8984-5.6914 5.6953-10.0391" fill="#02709f"/><path d="m62.5 53.1445c-1.2031-4.3359-5.6953-6.8945-10.0391-5.6914-4.3476 1.1992-6.8828 5.6914-5.6914 10.0391 1.1914 4.3437 5.6914 6.8828 10.0352 5.6914 4.3398-1.1914 6.8984-5.6914 5.6953-10.0391z" stroke="#fff" stroke-width="4" fill="none"/><path d="m84.6875 50.0586c-1.2031-4.3359-5.6953-6.8945-10.0391-5.6836-4.3476 1.1914-6.8945 5.6836-5.6914 10.0391 1.1914 4.3359 5.6914 6.8945 10.0352 5.6836 4.3398-1.1914 6.8984-5.6836 5.6953-10.0391" fill="#02709f"/><path d="m84.6875 50.0586c-1.2031-4.3359-5.6953-6.8945-10.0391-5.6836-4.3476 1.1914-6.8945 5.6836-5.6914 10.0391 1.1914 4.3359 5.6914 6.8945 10.0352 5.6836 4.3398-1.1914 6.8984-5.6836 5.6953-10.0391z" stroke="#fff" stroke-width="4" fill="none"/><path d="m36.9805 43.9375c-1.2071-4.3477-5.6992-6.9062-10.0352-5.7031-4.3555 1.1992-6.8984 5.6914-5.707 10.039 1.2148 4.3438 5.707 6.9024 10.043 5.6914 4.3437-1.1914 6.8906-5.6835 5.6992-10.0273zm20.5664-8.7227c-1.1914-4.3437-5.6914-6.8945-10.0352-5.7031-4.3398 1.211-6.8984 5.7031-5.6953 10.0391 1.2031 4.3555 5.6953 6.8945 10.0391 5.7031 4.3476-1.1992 6.8945-5.7031 5.6914-10.0391" fill="#02709f"/><path d="m36.9805 43.9375c-1.2071-4.3477-5.6992-6.9062-10.0352-5.7031-4.3555 1.1992-6.8984 5.6914-5.707 10.039 1.2148 4.3438 5.707 6.9024 10.043 5.6914 4.3437-1.1914 6.8906-5.6835 5.6992-10.0273zm20.5664-8.7227c-1.1914-4.3437-5.6914-6.8945-10.0352-5.7031-4.3398 1.211-6.8984 5.7031-5.6953 10.0391 1.2031 4.3555 5.6953 6.8945 10.0391 5.7031 4.3476-1.1992 6.8945-5.7031 5.6914-10.0391z" stroke="#fff" stroke-width="4" fill="none"/><path d="m79.7344 32.1289c-1.1914-4.3437-5.6914-6.8945-10.0352-5.6914-4.3398 1.1992-6.8984 5.6914-5.6953 10.0391 1.2031 4.3437 5.6953 6.8828 10.0391 5.6914 4.3476-1.1992 6.8828-5.6836 5.6914-10.0391" fill="#02709f"/><path d="m79.7344 32.1289c-1.1914-4.3437-5.6914-6.8945-10.0352-5.6914-4.3398 1.1992-6.8984 5.6914-5.6953 10.0391 1.2031 4.3437 5.6953 6.8828 10.0391 5.6914 4.3476-1.1992 6.8828-5.6836 5.6914-10.0391z" stroke="#fff" stroke-width="4" fill="none"/><path d="m47.207 23.0977c-0.1093-0.4024-0.8086-0.5664-1.5703-0.3633-0.7539 0.2148-1.2734 0.7148-1.1719 1.1133 0.1172 0.4101 0.8282 0.5664 1.5782 0.3515 0.7617-0.1953 1.2734-0.7031 1.164-1.1015zm-2.7422 0.75-2.5703-9.336m3.0157 8.5664-2.4102-8.7304m4.707 8.75-2.5781-9.3477m1.8047 8.9063-2.4023-8.7305m18.9101 144.3122-1.7812-6.468m2.5 6.269-1.8164-6.562m38.4372-3.547-1.7849-6.469m1.0625 6.664-1.8164-6.559" fill="#02709f"/><path d="m47.207 23.0977c-0.1093-0.4024-0.8086-0.5664-1.5703-0.3633-0.7539 0.2148-1.2734 0.7148-1.1719 1.1133 0.1172 0.4101 0.8282 0.5664 1.5782 0.3515 0.7617-0.1953 1.2734-0.7031 1.164-1.1015zm-2.7422 0.75-2.5703-9.336m3.0157 8.5664-2.4102-8.7304m4.707 8.75-2.5781-9.3477m1.8047 8.9063-2.4023-8.7305m18.9101 144.3122-1.7812-6.468m2.5 6.269-1.8164-6.562m38.4372-3.547-1.7849-6.469m1.0625 6.664-1.8164-6.559" stroke="#fff" stroke-width="4" fill="none"/><path d="m137.539 232.734s2.266 9.434 3.555 16c2.469 12.59 2.722 18.934 2.722 18.934-0.039 1.727-0.488 3.242-2.086 3.684l-7.304 2.019c-1.606 0.438-2.68-0.555-3.696-2.09 0 0-2.832-5.859-6.875-17.789-2.144-6.328-4.207-14.277-4.207-14.277m-2.863-92.735c-0.445-1.597-2.09-2.523-3.687-2.085l-62.9691 17.375c-1.6016 0.441-2.5391 2.089-2.0937 3.683l10.9804 39.817c0.4492 1.597 2.086 2.523 3.6914 2.085l62.969-17.378c1.597-0.446 2.539-2.086 2.09-3.684l-10.981-39.813zm21.613 89.668c-5.847 2.274-11.816 4.379-17.878 6.293m-46.8481 7.825s-15.0117-30.637-23.5821-61.715c-10.2187-36.996-11.6992-49.317-10.1601-66.5 0.3125-3.555 3.832-7.879 7.7656-8.965 1.5508-0.43 3.3594-0.918 4.1094-1.133 0.7656-0.215 3.6562-0.918 6.0664-2.793s2.9961-2.363 4.4219-3.133c1.4258-0.781 1.6211-1.281 5.6679-2.394 4.043-1.121 4.4805-0.801 6.0899-0.86 1.6211-0.058 2.3828 0.059 5.4219 0.43 3.0273 0.371 5.8711-0.508 6.6289-0.711 0.7539-0.207 2.5586-0.715 4.1132-1.144 3.9375-1.082 9.1719 0.84 11.2692 3.722 10.125 13.953 15.164 25.301 25.379 62.293 8.575 31.071 11.407 65.075 11.407 65.075m-73.4262 2.46c12.0781-1.738 25.1093-4.515 37.1762-7.847 12.082-3.336 24.691-7.633 35.949-12.332" fill="#02709f"/><path d="m91.8633 121.836c-2.6719-9.676-12.6953-15.359-22.3828-12.695-9.6758 2.675-15.3711 12.695-12.6953 22.382 2.6796 9.684 12.6953 15.364 22.3828 12.692 9.6718-2.672 15.3554-12.692 12.6953-22.379zm-33.5156 29.844c2.4414-0.672 4.3164-1.688 5.2187-2.293 0.9063-0.602 1.1914-1.407 0.4258-1.922-0.8359-0.547-2.3399-1.641-3.1445-2.356-0.9375-0.832-1.6211-1.066-3.0235-0.25-2.4219 1.395-7.6015 5.121-8.8906 6.879-0.6602 0.883-0.0352 1.223 1.2734 1.293 1.875 0.106 5.4649-0.617 8.1407-1.351zm-12.918-19.141c1.3398-0.449 4.6094-2.129 5.5664-2.82 0.957-0.696 2.4531-2.188 2.3125-4.004-0.1523-2.141-0.0195-6.535 0.8828-8.02 1.1914-1.933 1.0313-2.754-0.6641-2.422-1.371 0.254-4.9062 1.524-5.9218 2.012-1.0039 0.488-2.4688 1.367-2.9297 2.735-0.957 2.882-1.1485 8.691-0.6602 11.543 0.1953 1.23 0.7032 1.21 1.4141 0.976" fill="#02709f"/><path d="m91.8633 121.836c-2.6719-9.676-12.6953-15.359-22.3828-12.695-9.6758 2.675-15.3711 12.695-12.6953 22.382 2.6796 9.684 12.6953 15.364 22.3828 12.692 9.6718-2.672 15.3554-12.692 12.6953-22.379zm-33.5156 29.844c2.4414-0.672 4.3164-1.688 5.2187-2.293 0.9063-0.602 1.1914-1.407 0.4258-1.922-0.8359-0.547-2.3399-1.641-3.1445-2.356-0.9375-0.832-1.6211-1.066-3.0235-0.25-2.4219 1.395-7.6015 5.121-8.8906 6.879-0.6602 0.883-0.0352 1.223 1.2734 1.293 1.875 0.106 5.4649-0.617 8.1407-1.351zm-12.918-19.141c1.3398-0.449 4.6094-2.129 5.5664-2.82 0.957-0.696 2.4531-2.188 2.3125-4.004-0.1523-2.141-0.0195-6.535 0.8828-8.02 1.1914-1.933 1.0313-2.754-0.6641-2.422-1.371 0.254-4.9062 1.524-5.9218 2.012-1.0039 0.488-2.4688 1.367-2.9297 2.735-0.957 2.882-1.1485 8.691-0.6602 11.543 0.1953 1.23 0.7032 1.21 1.4141 0.976z" stroke="#fff" stroke-width="4" fill="none"/><path d="m100.867 139.945c-2.449 0.68-4.5857 0.77-5.66 0.711-1.0859-0.058-1.75-0.601-1.3515-1.426 0.4414-0.91 1.164-2.613 1.4961-3.644 0.3789-1.191 0.8281-1.746 2.4726-1.777 2.7808-0.039 9.1408 0.507 11.1528 1.355 1.011 0.422 0.64 1.039-0.43 1.766-1.555 1.043-5.024 2.281-7.68 3.015zm1.274-23.05c-1.387 0.312-5.0512 0.527-6.2308 0.429-1.1758-0.105-3.2266-0.625-4.0469-2.246-0.9531-1.922-3.3203-5.625-4.8594-6.433-2.0156-1.047-2.3047-1.836-0.6641-2.434 1.2891-0.469 4.9805-1.199 6.0899-1.289 1.1367-0.098 2.8359-0.106 3.9258 0.84 2.3047 1.972 5.4535 6.875 6.4965 9.551 0.461 1.164 0.031 1.406-0.711 1.582" fill="#02709f"/><path d="m100.867 139.945c-2.449 0.68-4.5857 0.77-5.66 0.711-1.0859-0.058-1.75-0.601-1.3515-1.426 0.4414-0.91 1.164-2.613 1.4961-3.644 0.3789-1.191 0.8281-1.746 2.4726-1.777 2.7808-0.039 9.1408 0.507 11.1528 1.355 1.011 0.422 0.64 1.039-0.43 1.766-1.555 1.043-5.024 2.281-7.68 3.015zm1.274-23.05c-1.387 0.312-5.0512 0.527-6.2308 0.429-1.1758-0.105-3.2266-0.625-4.0469-2.246-0.9531-1.922-3.3203-5.625-4.8594-6.433-2.0156-1.047-2.3047-1.836-0.6641-2.434 1.2891-0.469 4.9805-1.199 6.0899-1.289 1.1367-0.098 2.8359-0.106 3.9258 0.84 2.3047 1.972 5.4535 6.875 6.4965 9.551 0.461 1.164 0.031 1.406-0.711 1.582z" stroke="#fff" stroke-width="4" fill="none"/><path d="m99.1094 221.84 5.9956 21.719" fill="#02709f"/><path d="m99.1094 221.84 5.9956 21.719" stroke="#fff" stroke-width="4" fill="none"/><path d="m101.105 221.293 5.997 21.719" fill="#02709f"/><g stroke="#fff" stroke-width="4" fill="none"><path d="m101.105 221.293 5.997 21.719"/><path d="m143.145 158.242c2.335 8.477 12.121 50.832 12.531 56.719 0.429 5.883-1.75 13.285-4.895 14.781 0.164 2.113 0.215 3.285 0.215 3.285-0.769 0.317-1.555 0.621-2.324 0.93l0.242-0.086s2.258 9.445 3.559 16.008c2.468 12.582 2.722 18.926 2.722 18.926-0.05 1.726-0.5 3.25-2.09 3.691l-7.316 2.02c-1.601 0.441-2.676-0.555-3.687-2.094 0 0-2.832-5.863-6.875-17.793-2.153-6.324-4.204-14.266-4.204-14.266l0.098-0.047c-4.363 1.426-8.785 2.77-13.277 4.004-11.406 3.153-22.8323 5.575-34.2424 7.305 0 0-0.5664-1.027-1.5118-2.93-3.457 0.332-9.1289-4.902-11.789-10.175-2.6445-5.266-15.9844-46.641-18.3281-55.118-2.3321-8.48-6.8438-30.043-8.8477-40.769-2.0039-10.738-3.7969-29.449-10.6953-54.4299-4.0703-14.7265-10.6445-36.6797-14.0899-45.8086-0.8984-2.3945-8.1054-14.5703 2.3555-18.7031 10.2891-4.0703 25.6016-8.4648 33.336-10.6055 7.7382-2.1289 23.125-6.2109 34.0546-7.99606 11.0938-1.80859 11.1602 12.33206 11.6133 14.85156 1.7388 9.6094 7.3398 31.8164 11.4058 46.543 6.891 24.9922 14.942 41.9726 18.731 52.2186 3.785 10.235 10.977 31.059 13.309 39.539z"/><path d="m143.762 268.57s-3.403 0.996-6.321 1.801c-2.605 0.723-6.179 1.645-6.179 1.645"/><path d="m131.777 157.105c2.332 8.473 12.11 50.829 12.532 56.719 0.425 5.883-1.758 13.285-4.895 14.774 0.164 2.121 0.203 3.293 0.203 3.293-0.769 0.312-1.543 0.613-2.312 0.922l0.234-0.079s2.258 9.434 3.555 16c2.469 12.59 2.722 18.934 2.722 18.934-0.039 1.727-0.488 3.242-2.086 3.684l-7.304 2.019c-1.606 0.438-2.68-0.555-3.696-2.09 0 0-2.832-5.859-6.875-17.789-2.144-6.328-4.207-14.277-4.207-14.277l0.11-0.035c-4.367 1.425-8.789 2.765-13.281 4-11.4067 3.148-22.8325 5.574-34.2426 7.308 0 0-0.5664-1.035-1.5117-2.929-3.4571 0.328-9.1289-4.907-11.7891-10.18-2.6523-5.27-15.9922-46.641-18.3281-55.117-2.3321-8.481-6.8438-30.039-8.8477-40.774-2-10.726-3.7969-29.437-10.7031-54.4372-4.0625-14.7266-10.6445-36.6602-14.08204-45.8008-0.91016-2.3906-8.10547-14.5703 2.35156-18.7109 10.30468-4.0625 25.60548-8.4571 33.33988-10.586 7.7382-2.13669 23.1172-6.21091 34.0547-8.00779 11.0937-1.8164 11.164 12.33599 11.6132 14.85549 1.7383 9.5976 7.3399 31.8242 11.4024 46.543 6.8986 24.9882 14.9456 41.9802 18.7346 52.2152 3.789 10.234 10.965 31.062 13.308 39.546z"/><path d="m51.8281 97.7266c-1.1914-4.3477-5.707-6.8868-10.0429-5.6953-4.3438 1.2031-6.8907 5.6953-5.6993 10.0387 1.2071 4.356 5.6993 6.895 10.0352 5.703 4.3555-1.199 6.9062-5.703 5.707-10.0464z"/><path d="m72.3945 89.0156c-1.1914-4.3476-5.6836-6.8867-10.0429-5.6953-4.3321 1.1914-6.8828 5.6953-5.6836 10.0391 1.1914 4.3359 5.6836 6.8946 10.0312 5.6953 4.3438-1.2031 6.9024-5.6953 5.6953-10.0391z"/><path d="m94.582 85.918c-1.1914-4.336-5.6836-6.8828-10.0429-5.6836-4.3321 1.2031-6.8907 5.6836-5.6914 10.039 1.1992 4.3477 5.6914 6.8946 10.039 5.6954 4.3438-1.2032 6.9024-5.6954 5.6953-10.0508z"/><path d="m46.8867 79.7969c-1.2148-4.3477-5.707-6.8946-10.0508-5.6953-4.3476 1.1914-6.8828 5.6953-5.6914 10.039 1.1914 4.336 5.6914 6.8946 10.0352 5.6914 4.3398-1.1992 6.8984-5.6914 5.707-10.0351z"/><path d="m67.4531 71.0742c-1.1914-4.3359-5.707-6.8828-10.0429-5.6836-4.3438 1.1914-6.8907 5.6836-5.6993 10.0313 1.2071 4.3437 5.6993 6.9023 10.0352 5.6914 4.3555-1.1914 6.8984-5.6836 5.707-10.0391z"/><path d="m89.6406 67.9961c-1.2031-4.3438-5.707-6.9023-10.0429-5.6992-4.3438 1.1992-6.8907 5.6992-5.6993 10.0469 1.2071 4.3359 5.6993 6.8945 10.0352 5.6835 4.3555-1.1914 6.8984-5.6835 5.707-10.0312z"/><path d="m41.9219 61.8555c-1.1914-4.336-5.6836-6.8828-10.0352-5.6836-4.3398 1.1914-6.8984 5.6836-5.6836 10.0312 1.1914 4.3438 5.6836 6.9024 10.0274 5.7032 4.3476-1.2032 6.8945-5.6954 5.6914-10.0508z"/><path d="m62.5 53.1445c-1.2031-4.3359-5.6953-6.8945-10.0391-5.6914-4.3476 1.1992-6.8828 5.6914-5.6914 10.0391 1.1914 4.3437 5.6914 6.8828 10.0352 5.6914 4.3398-1.1914 6.8984-5.6914 5.6953-10.0391z"/><path d="m84.6875 50.0586c-1.2031-4.3359-5.6953-6.8945-10.0391-5.6836-4.3476 1.1914-6.8945 5.6836-5.6914 10.0391 1.1914 4.3359 5.6914 6.8945 10.0352 5.6836 4.3398-1.1914 6.8984-5.6836 5.6953-10.0391z"/><path d="m36.9805 43.9375c-1.2071-4.3477-5.6992-6.9062-10.0352-5.7031-4.3555 1.1992-6.8984 5.6914-5.707 10.039 1.2148 4.3438 5.707 6.9024 10.043 5.6914 4.3437-1.1914 6.8906-5.6835 5.6992-10.0273zm20.5664-8.7227c-1.1914-4.3437-5.6914-6.8945-10.0352-5.7031-4.3398 1.211-6.8984 5.7031-5.6953 10.0391 1.2031 4.3555 5.6953 6.8945 10.0391 5.7031 4.3476-1.1992 6.8945-5.7031 5.6914-10.0391z"/><path d="m79.7344 32.1289c-1.1914-4.3437-5.6914-6.8945-10.0352-5.6914-4.3398 1.1992-6.8984 5.6914-5.6953 10.0391 1.2031 4.3437 5.6953 6.8828 10.0391 5.6914 4.3476-1.1992 6.8828-5.6836 5.6914-10.0391z"/><path d="m47.207 23.0977c-0.1093-0.4024-0.8086-0.5664-1.5703-0.3633-0.7539 0.2148-1.2734 0.7148-1.1719 1.1133 0.1172 0.4101 0.8282 0.5664 1.5782 0.3515 0.7617-0.1953 1.2734-0.7031 1.164-1.1015zm-2.7422 0.75-2.5703-9.336m3.0157 8.5664-2.4102-8.7304m4.707 8.75-2.5781-9.3477m1.8047 8.9063-2.4023-8.7305m18.9101 144.3122-1.7812-6.468m2.5 6.269-1.8164-6.562m38.4372-3.547-1.7849-6.469m1.0625 6.664-1.8164-6.559"/><path d="m137.539 232.734s2.266 9.434 3.555 16c2.469 12.59 2.722 18.934 2.722 18.934-0.039 1.727-0.488 3.242-2.086 3.684l-7.304 2.019c-1.606 0.438-2.68-0.555-3.696-2.09 0 0-2.832-5.859-6.875-17.789-2.144-6.328-4.207-14.277-4.207-14.277m-2.863-92.735c-0.445-1.597-2.09-2.523-3.687-2.085l-62.9691 17.375c-1.6016 0.441-2.5391 2.089-2.0937 3.683l10.9804 39.817c0.4492 1.597 2.086 2.523 3.6914 2.085l62.969-17.378c1.597-0.446 2.539-2.086 2.09-3.684l-10.981-39.813zm21.613 89.668c-5.847 2.274-11.816 4.379-17.878 6.293m-46.8481 7.825s-15.0117-30.637-23.5821-61.715c-10.2187-36.996-11.6992-49.317-10.1601-66.5 0.3125-3.555 3.832-7.879 7.7656-8.965 1.5508-0.43 3.3594-0.918 4.1094-1.133 0.7656-0.215 3.6562-0.918 6.0664-2.793s2.9961-2.363 4.4219-3.133c1.4258-0.781 1.6211-1.281 5.6679-2.394 4.043-1.121 4.4805-0.801 6.0899-0.86 1.6211-0.058 2.3828 0.059 5.4219 0.43 3.0273 0.371 5.8711-0.508 6.6289-0.711 0.7539-0.207 2.5586-0.715 4.1132-1.144 3.9375-1.082 9.1719 0.84 11.2692 3.722 10.125 13.953 15.164 25.301 25.379 62.293 8.575 31.071 11.407 65.075 11.407 65.075m-73.4262 2.46c12.0781-1.738 25.1093-4.515 37.1762-7.847 12.082-3.336 24.691-7.633 35.949-12.332"/><path d="m91.8633 121.836c-2.6719-9.676-12.6953-15.359-22.3828-12.695-9.6758 2.675-15.3711 12.695-12.6953 22.382 2.6796 9.684 12.6953 15.364 22.3828 12.692 9.6718-2.672 15.3554-12.692 12.6953-22.379zm-33.5156 29.844c2.4414-0.672 4.3164-1.688 5.2187-2.293 0.9063-0.602 1.1914-1.407 0.4258-1.922-0.8359-0.547-2.3399-1.641-3.1445-2.356-0.9375-0.832-1.6211-1.066-3.0235-0.25-2.4219 1.395-7.6015 5.121-8.8906 6.879-0.6602 0.883-0.0352 1.223 1.2734 1.293 1.875 0.106 5.4649-0.617 8.1407-1.351zm-12.918-19.141c1.3398-0.449 4.6094-2.129 5.5664-2.82 0.957-0.696 2.4531-2.188 2.3125-4.004-0.1523-2.141-0.0195-6.535 0.8828-8.02 1.1914-1.933 1.0313-2.754-0.6641-2.422-1.371 0.254-4.9062 1.524-5.9218 2.012-1.0039 0.488-2.4688 1.367-2.9297 2.735-0.957 2.882-1.1485 8.691-0.6602 11.543 0.1953 1.23 0.7032 1.21 1.4141 0.976z"/><path d="m100.867 139.945c-2.449 0.68-4.5857 0.77-5.66 0.711-1.0859-0.058-1.75-0.601-1.3515-1.426 0.4414-0.91 1.164-2.613 1.4961-3.644 0.3789-1.191 0.8281-1.746 2.4726-1.777 2.7808-0.039 9.1408 0.507 11.1528 1.355 1.011 0.422 0.64 1.039-0.43 1.766-1.555 1.043-5.024 2.281-7.68 3.015zm1.274-23.05c-1.387 0.312-5.0512 0.527-6.2308 0.429-1.1758-0.105-3.2266-0.625-4.0469-2.246-0.9531-1.922-3.3203-5.625-4.8594-6.433-2.0156-1.047-2.3047-1.836-0.6641-2.434 1.2891-0.469 4.9805-1.199 6.0899-1.289 1.1367-0.098 2.8359-0.106 3.9258 0.84 2.3047 1.972 5.4535 6.875 6.4965 9.551 0.461 1.164 0.031 1.406-0.711 1.582z"/><path d="m99.1094 221.84 5.9956 21.719"/><path d="m101.105 221.293 5.997 21.719"/></g></g></g></svg>
