<?xml version="1.0" encoding="UTF-8" standalone="no"?>
<!-- Created with Inkscape (http://www.inkscape.org/) -->

<svg
   xmlns:dc="http://purl.org/dc/elements/1.1/"
   xmlns:cc="http://creativecommons.org/ns#"
   xmlns:rdf="http://www.w3.org/1999/02/22-rdf-syntax-ns#"
   xmlns:svg="http://www.w3.org/2000/svg"
   xmlns="http://www.w3.org/2000/svg"
   xmlns:sodipodi="http://sodipodi.sourceforge.net/DTD/sodipodi-0.dtd"
   xmlns:inkscape="http://www.inkscape.org/namespaces/inkscape"
   width="108.34179mm"
   height="36.185299mm"
   viewBox="0 0 108.34179 36.185299"
   version="1.1"
   id="svg8"
   sodipodi:docname="slicenet-logo.svg"
   inkscape:version="0.91 r13725"
   inkscape:export-filename="D:\Users\tassos\Documents\SLICENET\Logo\SLICENET-logo-most-voted.png"
   inkscape:export-xdpi="600"
   inkscape:export-ydpi="600">
  <defs
     id="defs2" />
  <sodipodi:namedview
     id="base"
     pagecolor="#ffffff"
     bordercolor="#666666"
     borderopacity="1.0"
     inkscape:pageopacity="0"
     inkscape:pageshadow="2"
     inkscape:zoom="2"
     inkscape:cx="93.065263"
     inkscape:cy="30.767164"
     inkscape:document-units="mm"
     inkscape:current-layer="layer1"
     showgrid="false"
     inkscape:window-width="1916"
     inkscape:window-height="1041"
     inkscape:window-x="0"
     inkscape:window-y="37"
     inkscape:window-maximized="0"
     fit-margin-right="0"
     fit-margin-top="0"
     fit-margin-left="0"
     fit-margin-bottom="0" />
  <metadata
     id="metadata5">
    <rdf:RDF>
      <cc:Work
         rdf:about="">
        <dc:format>image/svg+xml</dc:format>
        <dc:type
           rdf:resource="http://purl.org/dc/dcmitype/StillImage" />
        <dc:title></dc:title>
      </cc:Work>
    </rdf:RDF>
  </metadata>
  <g
     inkscape:label="Layer 1"
     inkscape:groupmode="layer"
     id="layer1"
     transform="translate(-23.364352,-19.9745)">
    <path
       style="opacity:1;fill:#37abe5;fill-opacity:1;stroke:#37abe5;stroke-width:0.88582683;stroke-miterlimit:4;stroke-dasharray:none;stroke-opacity:1"
       d="M 347.09766,0.44726562 11.423828,9.875 C 5.0708409,10.053433 0.17744198,15.308693 0.453125,21.658203 l 3.6152344,83.263677 c 0.275683,6.34951 5.6118565,11.31905 11.9648436,11.14062 l 0.103516,-0.002 c -3.47013,-1.89334 -5.898698,-5.49427 -6.082031,-9.7168 L 6.4394531,23.078125 C 6.1637701,16.728614 11.057169,11.473355 17.410156,11.294922 L 352.98438,1.8691406 c -1.74846,-0.95442636 -3.75775,-1.48167043 -5.88672,-1.42187498 z"
       transform="matrix(0.28222222,0,0,0.28222222,23.36459,19.974565)"
       id="rect10"
       inkscape:connector-curvature="0" />
    <g
       id="g936"
       transform="matrix(1.0520142,-0.02954741,0.03673714,0.846127,-2.7340747,4.9385948)"
       inkscape:export-xdpi="600"
       inkscape:export-ydpi="600">
      <path
         style="fill:#23255a;fill-opacity:1;stroke:#23255a;stroke-width:0.8850432;stroke-opacity:1"
         d="M 360.30273,6.4296875 30.193359,15.701172 c -7.89453,0.22173 -14.027636,5.511817 -13.751953,11.861328 l 3.615235,83.26367 c 0.25882,5.96114 6.071562,10.67224 13.314453,11.04297 -4.223727,-1.88526 -7.146579,-5.44168 -7.328125,-9.62305 L 22.427734,28.982422 C 22.152051,22.632911 28.285157,17.342824 36.179688,17.121094 L 366.28906,7.8496094 c 0.48287,-0.013562 0.95977,-0.00658 1.43164,0.017578 -2.18992,-0.9773099 -4.7226,-1.5132034 -7.41797,-1.4375 z"
         transform="matrix(0.26794171,0.00935673,-0.01163349,0.33313969,24.158268,18.613972)"
         id="rect10-5"
         inkscape:connector-curvature="0" />
    </g>
    <g
       id="g888-2-0"
       transform="matrix(1.0520142,-0.02954741,0.03673714,0.846127,-9.5480407,-6.6412622)"
       inkscape:export-xdpi="600"
       inkscape:export-ydpi="600"
       style="opacity:1">
      <path
         style="fill:#37abe5;fill-opacity:1;stroke:#37abe5;stroke-width:0.8850432;stroke-opacity:1"
         d="M 376.28906,12.332031 46.179688,21.603516 c -7.894531,0.221729 -14.027637,5.511817 -13.751954,11.861328 l 3.615235,83.265626 c 0.258866,5.96219 6.073695,10.67369 13.318359,11.04297 -4.225261,-1.88493 -7.150444,-5.44075 -7.332031,-9.62305 L 38.414062,34.886719 C 38.138379,28.537208 44.271485,23.24712 52.166016,23.025391 L 382.27539,13.751953 c 0.48287,-0.01356 0.95977,-0.0046 1.43164,0.01953 -2.18992,-0.97731 -4.7226,-1.515156 -7.41797,-1.439453 z"
         transform="matrix(0.26794171,0.00935673,-0.01163349,0.33313969,30.150112,32.508932)"
         id="rect10-5-8"
         inkscape:connector-curvature="0" />
    </g>
    <g
       id="g1055"
       transform="matrix(1.652448,-0.04615704,0.04615704,1.652448,-19.539334,-119.78966)"
       inkscape:export-xdpi="600"
       inkscape:export-ydpi="600">
      <path
         d="m 32.474707,100.66062 q 0,0.30691 0.169333,0.508 0.169334,0.1905 0.455084,0.27516 l 0.381,0 q 1.386416,0 2.688166,-0.35983 0.306917,-0.0847 0.677333,-0.21167 0.381,-0.13758 0.762,-0.32808 0.381,-0.1905 0.73025,-0.42333 0.359834,-0.243419 0.635,-0.529169 0.28575,-0.296334 0.455084,-0.635 0.169333,-0.34925 0.169333,-0.740834 0,-0.254 -0.116417,-0.47625 -0.105833,-0.232833 -0.296333,-0.402166 -0.179917,-0.169334 -0.423333,-0.264584 -0.232834,-0.105833 -0.486834,-0.105833 l -3.873499,0 q 0.03175,-0.07408 0.137583,-0.148167 0.116417,-0.08467 0.15875,-0.105833 0.73025,-0.497417 1.598083,-0.709083 0.867833,-0.22225 1.735667,-0.296334 0.232833,-0.02117 0.508,-0.02117 0.275166,-0.01058 0.508,-0.07408 0.243416,-0.0635 0.391583,-0.22225 0.15875,-0.169333 0.15875,-0.508 0,-0.264583 -0.15875,-0.47625 -0.148167,-0.211666 -0.402167,-0.296333 l -0.529166,0 q -0.560917,0 -1.11125,0.0635 -0.53975,0.05292 -1.0795,0.179917 -0.338667,0.07408 -0.751417,0.211666 -0.41275,0.127 -0.836083,0.3175 -0.423333,0.179917 -0.836083,0.423334 -0.402167,0.243416 -0.719667,0.550333 -0.3175,0.306917 -0.508,0.677333 -0.1905,0.370417 -0.1905,0.79375 0,0.338667 0.201083,0.66675 0.201084,0.3175 0.53975,0.433917 0.04233,0.02117 0.116417,0.04233 0.07408,0.02117 0.137583,0.04233 0.07408,0.02117 0.127,0.04233 0.05292,0.01058 0.0635,0.01058 l 4.021667,0 q -0.105834,0.148167 -0.28575,0.264584 -0.179917,0.105833 -0.338667,0.1905 -0.455083,0.243416 -0.941917,0.41275 -0.47625,0.15875 -0.984249,0.254 -0.497417,0.09525 -1.016,0.137583 -0.508,0.04233 -1.016,0.05292 -0.28575,0.08467 -0.455084,0.285749 -0.169333,0.1905 -0.169333,0.49742 z"
         style="font-style:normal;font-variant:normal;font-weight:normal;font-stretch:normal;font-size:medium;line-height:1.25;font-family:'Ecliptic (BRK)';-inkscape-font-specification:'Ecliptic (BRK)';letter-spacing:0px;word-spacing:0px;fill:#23255a;fill-opacity:1;stroke:none;stroke-width:0.26458332"
         id="path990"
         inkscape:connector-curvature="0" />
      <path
         d="m 41.389677,99.866867 0,-5.164666 q 0,-0.07408 -0.0635,-0.169334 -0.05292,-0.105833 -0.148167,-0.1905 -0.08467,-0.09525 -0.1905,-0.15875 -0.09525,-0.0635 -0.169333,-0.0635 l -0.4445,0 q -0.09525,0 -0.1905,0.07408 -0.09525,0.0635 -0.179917,0.169333 -0.08467,0.09525 -0.137583,0.211667 -0.05292,0.105833 -0.05292,0.1905 l 0,6.032503 q 0,0.0953 0.05292,0.21167 0.0635,0.10583 0.148166,0.21166 0.08467,0.0952 0.1905,0.15875 0.116417,0.0635 0.232834,0.0635 l 6.085416,0 q 0.137584,0 0.254,-0.0741 0.127,-0.0741 0.211667,-0.1905 0.08467,-0.11642 0.127,-0.254 0.05292,-0.13758 0.05292,-0.26458 0,-0.27517 -0.148167,-0.45509 -0.137583,-0.1905 -0.381,-0.296333 -0.02117,-0.01058 -0.07408,-0.02117 -0.04233,-0.02117 -0.04233,-0.02117 z"
         style="font-style:normal;font-variant:normal;font-weight:normal;font-stretch:normal;font-size:medium;line-height:1.25;font-family:'Ecliptic (BRK)';-inkscape-font-specification:'Ecliptic (BRK)';letter-spacing:0px;word-spacing:0px;fill:#23255a;fill-opacity:1;stroke:none;stroke-width:0.26458332"
         id="path992"
         inkscape:connector-curvature="0" />
      <path
         d="m 48.16086,94.151867 q -0.105833,0 -0.243416,0.04233 -0.127,0.03175 -0.243417,0.105833 -0.116417,0.07408 -0.201083,0.179917 -0.07408,0.09525 -0.07408,0.232833 l 0,6.13834 q 0,0.13758 0.07408,0.254 0.07408,0.10583 0.1905,0.17991 0.116416,0.0741 0.243416,0.11642 0.137584,0.0423 0.254,0.0423 0.28575,0 0.53975,-0.1905 0.254,-0.20108 0.254,-0.51858 l 0,-5.873753 q 0,-0.338667 -0.243416,-0.518584 -0.243417,-0.1905 -0.550334,-0.1905 z"
         style="font-style:normal;font-variant:normal;font-weight:normal;font-stretch:normal;font-size:medium;line-height:1.25;font-family:'Ecliptic (BRK)';-inkscape-font-specification:'Ecliptic (BRK)';letter-spacing:0px;word-spacing:0px;fill:#23255a;fill-opacity:1;stroke:none;stroke-width:0.26458332"
         id="path994"
         inkscape:connector-curvature="0" />
      <path
         d="m 49.176529,99.697534 q 0,0.264583 0.05292,0.529166 0.0635,0.26458 0.179917,0.49742 0.127,0.23283 0.3175,0.41275 0.201083,0.16933 0.486833,0.24341 0.05292,0.0212 0.137583,0.0423 0.09525,0.0212 0.09525,0.0212 l 5.23875,0 q 0.137583,0 0.254,-0.0741 0.116417,-0.0847 0.201083,-0.20108 0.08467,-0.11642 0.127,-0.254 0.04233,-0.13759 0.04233,-0.254 0,-0.11642 -0.05292,-0.254 -0.04233,-0.13759 -0.127,-0.254 -0.08467,-0.127 -0.201083,-0.201086 -0.116417,-0.08467 -0.243417,-0.08467 l -4.878917,0 -0.03175,-0.05292 q 0,0 -0.01058,-0.04233 0,-0.04233 0,-0.0635 0,-0.592666 0.296333,-1.185333 0.306917,-0.592667 0.762,-1.100667 0.465667,-0.518583 1.026584,-0.899583 0.560916,-0.391583 1.090083,-0.582083 0.402167,-0.137584 0.783167,-0.179917 0.391583,-0.05292 0.814916,-0.08467 0.08467,-0.01058 0.201084,-0.03175 0.127,-0.02117 0.211666,-0.08467 0.179917,-0.148167 0.264584,-0.296334 0.08467,-0.15875 0.08467,-0.381 0,-0.264583 -0.148166,-0.47625 -0.148167,-0.22225 -0.41275,-0.296333 l -0.423334,0 q -0.846666,0 -1.651,0.243417 -0.804333,0.243416 -1.513416,0.687916 -0.709084,0.433917 -1.30175,1.04775 -0.582083,0.60325 -0.994833,1.3335 -0.296334,0.529167 -0.486834,1.100667 -0.1905,0.5715 -0.1905,1.17475 z"
         style="font-style:normal;font-variant:normal;font-weight:normal;font-stretch:normal;font-size:medium;line-height:1.25;font-family:'Ecliptic (BRK)';-inkscape-font-specification:'Ecliptic (BRK)';letter-spacing:0px;word-spacing:0px;fill:#23255a;fill-opacity:1;stroke:none;stroke-width:0.26458332"
         id="path996"
         inkscape:connector-curvature="0" />
      <path
         d="m 56.514582,99.697534 q 0,0.254 0.04233,0.497416 0.05292,0.24342 0.15875,0.46567 0.105834,0.21166 0.275167,0.39158 0.169333,0.16933 0.41275,0.27517 0.08467,0.0423 0.201083,0.0847 0.127,0.0318 0.211667,0.0318 l 5.207,0 q 0.137583,0 0.254,-0.0741 0.116416,-0.0847 0.201083,-0.20108 0.08467,-0.11642 0.127,-0.254 0.04233,-0.13759 0.04233,-0.254 0,-0.11642 -0.05292,-0.254 -0.04233,-0.13759 -0.127,-0.254 -0.08467,-0.127 -0.201084,-0.201086 -0.116416,-0.08467 -0.243416,-0.08467 l -4.878917,0 -0.03175,-0.05292 0,-0.105834 q 0,-0.243416 0.05292,-0.465666 0.0635,-0.232834 0.148167,-0.455084 l 0.09525,-0.22225 3.661833,0 q 0.137583,0 0.243416,-0.07408 0.105834,-0.08467 0.179917,-0.201083 0.08467,-0.127 0.127,-0.254 0.04233,-0.137584 0.04233,-0.254 0,-0.127 -0.04233,-0.264584 -0.04233,-0.148166 -0.127,-0.264583 -0.08467,-0.127 -0.211667,-0.201083 -0.116416,-0.08467 -0.264583,-0.08467 l -2.402416,0 q 0.0635,-0.09525 0.1905,-0.1905 0.137583,-0.09525 0.201083,-0.148167 0.465667,-0.359833 0.994833,-0.560916 0.529167,-0.211667 1.100667,-0.328084 0.232833,-0.04233 0.497416,-0.05292 0.275167,-0.01058 0.508,-0.0635 0.232834,-0.0635 0.381,-0.22225 0.148167,-0.169334 0.148167,-0.518584 0,-0.264583 -0.148167,-0.486833 -0.137583,-0.22225 -0.41275,-0.28575 l -0.423333,0 q -0.846667,0 -1.651,0.243417 -0.804333,0.243416 -1.513416,0.687916 -0.709084,0.433917 -1.30175,1.04775 -0.582084,0.60325 -0.994834,1.3335 -0.28575,0.529167 -0.486833,1.100667 -0.1905,0.5715 -0.1905,1.17475 z"
         style="font-style:normal;font-variant:normal;font-weight:normal;font-stretch:normal;font-size:medium;line-height:1.25;font-family:'Ecliptic (BRK)';-inkscape-font-specification:'Ecliptic (BRK)';letter-spacing:0px;word-spacing:0px;fill:#23255a;fill-opacity:1;stroke:none;stroke-width:0.26458332"
         id="path998"
         inkscape:connector-curvature="0" />
      <path
         d="m 64.62522,94.120117 q -0.116417,0 -0.254,0.04233 -0.127,0.03175 -0.243417,0.105833 -0.116416,0.07408 -0.201083,0.179917 -0.07408,0.09525 -0.07408,0.232833 l 0,6.17009 q 0,0.13758 0.07408,0.254 0.07408,0.10583 0.1905,0.17991 0.116417,0.0741 0.254,0.11642 0.137583,0.0423 0.254,0.0423 0.137583,0 0.275167,-0.0529 0.148166,-0.0529 0.264583,-0.13759 0.116417,-0.0953 0.1905,-0.22225 0.07408,-0.13758 0.07408,-0.29633 l 0,-1.502837 q 0.402167,0.41275 0.85725,0.804337 0.465667,0.39158 0.98425,0.6985 0.518583,0.30692 1.0795,0.49742 0.560917,0.17991 1.164167,0.17991 0.5715,0 1.016,-0.254 0.4445,-0.26458 0.613833,-0.83608 0.01058,-0.0212 0.02117,-0.0635 0.01058,-0.0529 0.01058,-0.0529 l 0,-5.49275 q 0,-0.08467 -0.05292,-0.179917 -0.05292,-0.105833 -0.137583,-0.1905 -0.08467,-0.09525 -0.179917,-0.15875 -0.09525,-0.0635 -0.1905,-0.0635 l -0.4445,0 q -0.07408,0 -0.179916,0.07408 -0.09525,0.0635 -0.179917,0.15875 -0.08467,0.09525 -0.148167,0.201083 -0.0635,0.105833 -0.0635,0.179917 l 0,5.069416 q -0.423333,0 -0.804333,-0.137583 -0.381,-0.137583 -0.751417,-0.34925 -0.529166,-0.306917 -0.984249,-0.73025 -0.4445,-0.433917 -0.783167,-0.941917 -0.338667,-0.518583 -0.560917,-1.090083 -0.211666,-0.582083 -0.264583,-1.195917 -0.02117,-0.22225 -0.02117,-0.433916 0,-0.211667 -0.09525,-0.423334 -0.116416,-0.211666 -0.306916,-0.296333 -0.1905,-0.08467 -0.402167,-0.08467 z"
         style="font-style:normal;font-variant:normal;font-weight:normal;font-stretch:normal;font-size:medium;line-height:1.25;font-family:'Ecliptic (BRK)';-inkscape-font-specification:'Ecliptic (BRK)';letter-spacing:0px;word-spacing:0px;fill:#37abe5;fill-opacity:1;stroke:none;stroke-width:0.26458332"
         id="path1000"
         inkscape:connector-curvature="0" />
      <path
         d="m 71.397394,99.697534 q 0,0.254 0.04233,0.497416 0.05292,0.24342 0.15875,0.46567 0.105833,0.21166 0.275166,0.39158 0.169334,0.16933 0.41275,0.27517 0.08467,0.0423 0.201084,0.0847 0.127,0.0318 0.211666,0.0318 l 5.207,0 q 0.137584,0 0.254,-0.0741 0.116417,-0.0847 0.201084,-0.20108 0.08467,-0.11642 0.127,-0.254 0.04233,-0.13759 0.04233,-0.254 0,-0.11642 -0.05292,-0.254 -0.04233,-0.13759 -0.127,-0.254 -0.08467,-0.127 -0.201083,-0.201086 -0.116417,-0.08467 -0.243417,-0.08467 l -4.878916,0 -0.03175,-0.05292 0,-0.105834 q 0,-0.243416 0.05292,-0.465666 0.0635,-0.232834 0.148167,-0.455084 l 0.09525,-0.22225 3.661833,0 q 0.137584,0 0.243417,-0.07408 0.105833,-0.08467 0.179917,-0.201083 0.08467,-0.127 0.127,-0.254 0.04233,-0.137584 0.04233,-0.254 0,-0.127 -0.04233,-0.264584 -0.04233,-0.148166 -0.127,-0.264583 -0.08467,-0.127 -0.211667,-0.201083 -0.116417,-0.08467 -0.264583,-0.08467 l -2.402417,0 q 0.0635,-0.09525 0.1905,-0.1905 0.137583,-0.09525 0.201083,-0.148167 0.465667,-0.359833 0.994834,-0.560916 0.529166,-0.211667 1.100666,-0.328084 0.232834,-0.04233 0.497417,-0.05292 0.275167,-0.01058 0.508,-0.0635 0.232833,-0.0635 0.381,-0.22225 0.148167,-0.169334 0.148167,-0.518584 0,-0.264583 -0.148167,-0.486833 -0.137583,-0.22225 -0.41275,-0.28575 l -0.423333,0 q -0.846667,0 -1.651,0.243417 -0.804334,0.243416 -1.513417,0.687916 -0.709083,0.433917 -1.30175,1.04775 -0.582083,0.60325 -0.994833,1.3335 -0.28575,0.529167 -0.486834,1.100667 -0.1905,0.5715 -0.1905,1.17475 z"
         style="font-style:normal;font-variant:normal;font-weight:normal;font-stretch:normal;font-size:medium;line-height:1.25;font-family:'Ecliptic (BRK)';-inkscape-font-specification:'Ecliptic (BRK)';letter-spacing:0px;word-spacing:0px;fill:#37abe5;fill-opacity:1;stroke:none;stroke-width:0.26458332"
         id="path1002"
         inkscape:connector-curvature="0" />
      <path
         d="m 81.614116,95.697034 0,5.154086 q 0,0.0212 0.05292,0.127 0.05292,0.0952 0.08467,0.13758 0.22225,0.32808 0.645583,0.32808 0.127,0 0.275167,-0.0423 0.148167,-0.0529 0.264583,-0.13758 0.116417,-0.0952 0.1905,-0.22225 0.08467,-0.127 0.08467,-0.27517 l 0,-5.069416 2.106083,0 q 0.338667,0 0.53975,-0.254 0.201084,-0.254 0.201084,-0.560917 0,-0.105833 -0.04233,-0.232833 -0.03175,-0.137583 -0.105833,-0.254 -0.07408,-0.116417 -0.179917,-0.1905 -0.09525,-0.08467 -0.232833,-0.08467 l -6.201833,0 q -0.137584,0 -0.243417,0.08467 -0.105833,0.07408 -0.179917,0.1905 -0.0635,0.116417 -0.105833,0.254 -0.03175,0.127 -0.03175,0.232833 0,0.148167 0.05292,0.296334 0.05292,0.137583 0.148166,0.254 0.105834,0.116416 0.243417,0.1905 0.137583,0.07408 0.296333,0.07408 z"
         style="font-style:normal;font-variant:normal;font-weight:normal;font-stretch:normal;font-size:medium;line-height:1.25;font-family:'Ecliptic (BRK)';-inkscape-font-specification:'Ecliptic (BRK)';letter-spacing:0px;word-spacing:0px;fill:#37abe5;fill-opacity:1;stroke:none;stroke-width:0.26458332"
         id="path1004"
         inkscape:connector-curvature="0" />
    </g>
  </g>
</svg>
