<?xml version="1.0" encoding="UTF-8" standalone="no"?>
<!-- Created with Inkscape (http://www.inkscape.org/) -->

<svg
   xmlns:dc="http://purl.org/dc/elements/1.1/"
   xmlns:cc="http://creativecommons.org/ns#"
   xmlns:rdf="http://www.w3.org/1999/02/22-rdf-syntax-ns#"
   xmlns:svg="http://www.w3.org/2000/svg"
   xmlns="http://www.w3.org/2000/svg"
   xmlns:sodipodi="http://sodipodi.sourceforge.net/DTD/sodipodi-0.dtd"
   xmlns:inkscape="http://www.inkscape.org/namespaces/inkscape"
   id="svg3355"
   version="1.1"
   inkscape:version="0.91 r13725"
   xml:space="preserve"
   width="428.17874"
   height="178.205"
   viewBox="0 0 428.17874 178.205"
   sodipodi:docname="VTT.svg"><metadata
     id="metadata3361"><rdf:RDF><cc:Work
         rdf:about=""><dc:format>image/svg+xml</dc:format><dc:type
           rdf:resource="http://purl.org/dc/dcmitype/StillImage" /><dc:title></dc:title></cc:Work></rdf:RDF></metadata><defs
     id="defs3359" /><sodipodi:namedview
     pagecolor="#ffffff"
     bordercolor="#666666"
     borderopacity="1"
     objecttolerance="10"
     gridtolerance="10"
     guidetolerance="10"
     inkscape:pageopacity="0"
     inkscape:pageshadow="2"
     inkscape:window-width="1916"
     inkscape:window-height="1041"
     id="namedview3357"
     showgrid="false"
     fit-margin-top="0"
     fit-margin-left="0"
     fit-margin-right="0"
     fit-margin-bottom="0"
     inkscape:zoom="1.1097248"
     inkscape:cx="4.3271495"
     inkscape:cy="78.315"
     inkscape:window-x="1920"
     inkscape:window-y="37"
     inkscape:window-maximized="0"
     inkscape:current-layer="g3363" /><g
     id="g3363"
     inkscape:groupmode="layer"
     inkscape:label="ink_ext_XXXXXX"
     transform="matrix(1.25,0,0,-1.25,-132.64375,330.515)"><path
       inkscape:connector-curvature="0"
       id="path3369"
       style="fill:#1c567d;fill-opacity:1;fill-rule:nonzero;stroke:none"
       d="m 420.718,121.848 0,108.331 27.94,0 0,34.233 -96.946,0 0,-34.233 29.038,0 0,-108.331 0.005,0 39.963,0" /><path
       inkscape:connector-curvature="0"
       id="path3371"
       style="fill:#1c567d;fill-opacity:1;fill-rule:nonzero;stroke:none"
       d="m 272.425,230.179 0.003,-108.331 39.966,0 0,108.331 28.217,0 0,34.232 -95.573,0 -11.375,-34.232 38.762,0" /><path
       inkscape:connector-curvature="0"
       id="path3373"
       style="fill:#f1511b;fill-opacity:1;fill-rule:nonzero;stroke:none"
       d="m 186.059,121.848 46.758,142.448 -40.606,0 -23.795,-73.517 -3.059,-10.26 -0.008,-0.024 c -0.016,-0.052 -0.061,-0.073 -0.123,-0.073 -0.059,0 -0.096,0 -0.115,0.051 l -0.016,0.046 -3.027,10.257 -16.1,47.39 -39.853,0 38.939,-116.318 41.005,0" /></g></svg>