<?xml version="1.0" encoding="UTF-8" standalone="no"?>
<!-- Created with Inkscape (http://www.inkscape.org/) -->

<svg
   xmlns:dc="http://purl.org/dc/elements/1.1/"
   xmlns:cc="http://creativecommons.org/ns#"
   xmlns:rdf="http://www.w3.org/1999/02/22-rdf-syntax-ns#"
   xmlns:svg="http://www.w3.org/2000/svg"
   xmlns="http://www.w3.org/2000/svg"
   xmlns:sodipodi="http://sodipodi.sourceforge.net/DTD/sodipodi-0.dtd"
   xmlns:inkscape="http://www.inkscape.org/namespaces/inkscape"
   width="96"
   height="96"
   id="svg6517"
   version="1.1"
   inkscape:version="0.48.4 r9939"
   sodipodi:docname="icon.svg">
  <defs
     id="defs6519">
    <linearGradient
       id="Background">
      <stop
         id="stop4178"
         offset="0"
         style="stop-color:#b8b8b8;stop-opacity:1" />
      <stop
         id="stop4180"
         offset="1"
         style="stop-color:#c9c9c9;stop-opacity:1" />
    </linearGradient>
    <filter
       style="color-interpolation-filters:sRGB;"
       inkscape:label="Inner Shadow"
       id="filter1121">
      <feFlood
         flood-opacity="0.59999999999999998"
         flood-color="rgb(0,0,0)"
         result="flood"
         id="feFlood1123" />
      <feComposite
         in="flood"
         in2="SourceGraphic"
         operator="out"
         result="composite1"
         id="feComposite1125" />
      <feGaussianBlur
         in="composite1"
         stdDeviation="1"
         result="blur"
         id="feGaussianBlur1127" />
      <feOffset
         dx="0"
         dy="2"
         result="offset"
         id="feOffset1129" />
      <feComposite
         in="offset"
         in2="SourceGraphic"
         operator="atop"
         result="composite2"
         id="feComposite1131" />
    </filter>
    <filter
       style="color-interpolation-filters:sRGB;"
       inkscape:label="Drop Shadow"
       id="filter950">
      <feFlood
         flood-opacity="0.25"
         flood-color="rgb(0,0,0)"
         result="flood"
         id="feFlood952" />
      <feComposite
         in="flood"
         in2="SourceGraphic"
         operator="in"
         result="composite1"
         id="feComposite954" />
      <feGaussianBlur
         in="composite1"
         stdDeviation="1"
         result="blur"
         id="feGaussianBlur956" />
      <feOffset
         dx="0"
         dy="1"
         result="offset"
         id="feOffset958" />
      <feComposite
         in="SourceGraphic"
         in2="offset"
         operator="over"
         result="composite2"
         id="feComposite960" />
    </filter>
    <clipPath
       clipPathUnits="userSpaceOnUse"
       id="clipPath873">
      <g
         transform="matrix(0,-0.66666667,0.66604479,0,-258.25992,677.00001)"
         id="g875"
         inkscape:label="Layer 1"
         style="fill:#ff00ff;fill-opacity:1;stroke:none;display:inline">
        <path
           style="fill:#ff00ff;fill-opacity:1;stroke:none;display:inline"
           d="m 46.702703,898.22775 50.594594,0 C 138.16216,898.22775 144,904.06497 144,944.92583 l 0,50.73846 c 0,40.86071 -5.83784,46.69791 -46.702703,46.69791 l -50.594594,0 C 5.8378378,1042.3622 0,1036.525 0,995.66429 L 0,944.92583 C 0,904.06497 5.8378378,898.22775 46.702703,898.22775 Z"
           id="path877"
           inkscape:connector-curvature="0"
           sodipodi:nodetypes="sssssssss" />
      </g>
    </clipPath>
    <filter
       inkscape:collect="always"
       id="filter891"
       inkscape:label="Badge Shadow">
      <feGaussianBlur
         inkscape:collect="always"
         stdDeviation="0.71999962"
         id="feGaussianBlur893" />
    </filter>
    <inkscape:path-effect
       fuse_tolerance="0"
       vertical_pattern="false"
       prop_units="false"
       tang_offset="0"
       normal_offset="0"
       spacing="0"
       scale_y_rel="false"
       prop_scale="1"
       copytype="single_stretched"
       pattern="m -12.432584,670.58461 c 0,-2.76 2.24,-5 4.9999998,-5 2.7600002,0 5.0000002,2.24 5.0000002,5 0,2.76 -2.24,5 -5.0000002,5 -2.7599998,0 -4.9999998,-2.24 -4.9999998,-5 z"
       is_visible="true"
       id="path-effect4206-6-0"
       effect="skeletal" />
    <inkscape:path-effect
       fuse_tolerance="0"
       vertical_pattern="false"
       prop_units="false"
       tang_offset="0"
       normal_offset="0"
       spacing="0"
       scale_y_rel="false"
       prop_scale="1"
       copytype="single_stretched"
       pattern="m -6.155261,657.01061 c 0,-2.76 2.24,-5 5,-5 2.7599997,0 4.9999997,2.24 4.9999997,5 0,2.76 -2.24,5 -4.9999997,5 -2.76,0 -5,-2.24 -5,-5 z"
       is_visible="true"
       id="path-effect4206-6"
       effect="skeletal" />
    <inkscape:path-effect
       fuse_tolerance="0"
       vertical_pattern="false"
       prop_units="false"
       tang_offset="0"
       normal_offset="0"
       spacing="0"
       scale_y_rel="false"
       prop_scale="1"
       copytype="single_stretched"
       pattern="m -10.5,658.33867 c 0,-2.76 2.24,-5 5,-5 2.76,0 5.00000001,2.24 5.00000001,5 0,2.76 -2.24000001,5 -5.00000001,5 -2.76,0 -5,-2.24 -5,-5 z"
       is_visible="true"
       id="path-effect4168"
       effect="skeletal" />
    <inkscape:path-effect
       fuse_tolerance="0"
       vertical_pattern="false"
       prop_units="false"
       tang_offset="0"
       normal_offset="0"
       spacing="0"
       scale_y_rel="false"
       prop_scale="1"
       copytype="single_stretched"
       pattern="m -5,654.36216 c 0,-2.76 2.24,-5 5,-5 2.76,0 5,2.24 5,5 0,2.76 -2.24,5 -5,5 -2.76,0 -5,-2.24 -5,-5 z"
       is_visible="true"
       id="path-effect4172"
       effect="skeletal" />
    <inkscape:path-effect
       fuse_tolerance="0"
       vertical_pattern="false"
       prop_units="false"
       tang_offset="0"
       normal_offset="0"
       spacing="0"
       scale_y_rel="false"
       prop_scale="1"
       copytype="single_stretched"
       pattern="m -11.5,643.33867 c 0,-2.76 2.24,-5 5,-5 2.76,0 5,2.24 5,5 0,2.76 -2.24,5 -5,5 -2.76,0 -5,-2.24 -5,-5 z"
       is_visible="true"
       id="path-effect4206"
       effect="skeletal" />
    <inkscape:path-effect
       fuse_tolerance="0"
       vertical_pattern="false"
       prop_units="false"
       tang_offset="0"
       normal_offset="0"
       spacing="0"
       scale_y_rel="false"
       prop_scale="1"
       copytype="single_stretched"
       pattern="m 0,657.36216 c 0,-2.76 2.24,-5 5,-5 2.76,0 5,2.24 5,5 0,2.76 -2.24,5 -5,5 -2.76,0 -5,-2.24 -5,-5 z"
       is_visible="true"
       id="path-effect4228"
       effect="skeletal" />
    <inkscape:path-effect
       fuse_tolerance="0"
       vertical_pattern="false"
       prop_units="false"
       tang_offset="0"
       normal_offset="0"
       spacing="0"
       scale_y_rel="false"
       prop_scale="1"
       copytype="single_stretched"
       pattern="m -6,648.83867 c 0,-2.76 2.24,-5 5.00000001,-5 2.75999999,0 4.99999999,2.24 4.99999999,5 0,2.76 -2.24,5 -4.99999999,5 C -3.76,653.83867 -6,651.59867 -6,648.83867 Z"
       is_visible="true"
       id="path-effect4232"
       effect="skeletal" />
  </defs>
  <sodipodi:namedview
     id="base"
     pagecolor="#ffffff"
     bordercolor="#666666"
     borderopacity="1.0"
     inkscape:pageopacity="0.0"
     inkscape:pageshadow="2"
     inkscape:zoom="2"
     inkscape:cx="43.645027"
     inkscape:cy="48.026456"
     inkscape:document-units="px"
     inkscape:current-layer="layer1"
     showgrid="true"
     fit-margin-top="0"
     fit-margin-left="0"
     fit-margin-right="0"
     fit-margin-bottom="0"
     inkscape:window-width="1531"
     inkscape:window-height="724"
     inkscape:window-x="65"
     inkscape:window-y="24"
     inkscape:window-maximized="1"
     showborder="true"
     showguides="true"
     inkscape:guide-bbox="true"
     inkscape:showpageshadow="false">
    <inkscape:grid
       type="xygrid"
       id="grid821" />
    <sodipodi:guide
       orientation="1,0"
       position="15,80"
       id="guide823" />
    <sodipodi:guide
       orientation="0,1"
       position="80,80"
       id="guide825" />
    <sodipodi:guide
       orientation="1,0"
       position="80,15"
       id="guide827" />
    <sodipodi:guide
       orientation="0,1"
       position="15,15"
       id="guide829" />
  </sodipodi:namedview>
  <metadata
     id="metadata6522">
    <rdf:RDF>
      <cc:Work
         rdf:about="">
        <dc:format>image/svg+xml</dc:format>
        <dc:type
           rdf:resource="http://purl.org/dc/dcmitype/StillImage" />
        <dc:title />
      </cc:Work>
    </rdf:RDF>
  </metadata>
  <g
     inkscape:label="BACKGROUND"
     inkscape:groupmode="layer"
     id="layer1"
     transform="translate(268,-635.29076)"
     style="display:inline">
    <path
       style="fill:#217844;fill-opacity:0.92549020000000004;stroke:none;display:inline;filter:url(#filter1121)"
       d="m -267.65291,700.15563 0,-33.72973 c 0,-27.24324 3.88785,-31.13513 31.10302,-31.13513 l 33.79408,0 c 27.21507,0 31.1029,3.89189 31.1029,31.13513 l 0,33.72973 c 0,27.24325 -3.88783,31.13514 -31.1029,31.13514 l -33.79408,0 c -27.21517,0 -31.10302,-3.89189 -31.10302,-31.13514 z"
       id="path6455"
       inkscape:connector-curvature="0"
       sodipodi:nodetypes="sssssssss" />
    <text
       xml:space="preserve"
       style="font-size:22px;font-style:normal;font-weight:normal;line-height:125%;letter-spacing:0px;word-spacing:0px;fill:#ffffff;fill-opacity:1;stroke:none;font-family:Sans"
       x="-218"
       y="716.29077"
       id="text3847"
       sodipodi:linespacing="125%"><tspan
         sodipodi:role="line"
         id="tspan3849"
         x="-218"
         y="716.29077">RTC</tspan></text>
    <g
       transform="matrix(0.27734827,0,0,0.41619675,-308.72944,338.12759)"
       id="layer1-4"
       inkscape:label="Layer 1">
      <text
         transform="scale(0.9295803,1.0757543)"
         sodipodi:linespacing="125%"
         id="text3336"
         y="800.73663"
         x="247.72969"
         style="font-size:72.94125366px;font-style:normal;font-variant:normal;font-weight:300;font-stretch:normal;text-align:start;line-height:125%;letter-spacing:-1.71000016px;word-spacing:0px;writing-mode:lr-tb;text-anchor:start;fill:#507aa1;fill-opacity:1;stroke:#507aa1;stroke-width:0.40000001;stroke-linecap:butt;stroke-linejoin:miter;stroke-miterlimit:4;stroke-opacity:1;stroke-dasharray:none;font-family:Roboto;-inkscape-font-specification:'Roboto, weight=250'"
         xml:space="preserve"><tspan
           y="800.73663"
           x="247.72969"
           id="tspan3338"
           sodipodi:role="line">Flex</tspan></text>
      <text
         transform="scale(0.9295803,1.0757543)"
         sodipodi:linespacing="125%"
         id="text3336-4"
         y="799.96161"
         x="371.30701"
         style="font-size:72.94125366px;font-style:normal;font-variant:normal;font-weight:300;font-stretch:normal;text-align:start;line-height:125%;letter-spacing:-4.05000019px;word-spacing:0px;writing-mode:lr-tb;text-anchor:start;fill:#cf3721;fill-opacity:1;stroke:#cf3721;stroke-width:3.5999999;stroke-linecap:butt;stroke-linejoin:miter;stroke-miterlimit:4;stroke-opacity:1;stroke-dasharray:none;font-family:Roboto;-inkscape-font-specification:'Roboto, weight=250'"
         xml:space="preserve"><tspan
           y="799.96161"
           x="371.30701"
           id="tspan3338-6"
           sodipodi:role="line">RAN</tspan></text>
      <path
         sodipodi:nodetypes="cc"
         inkscape:connector-curvature="0"
         inkscape:original-d="m 150.5,862.33867 c 15.34671,-48.95124 28.00638,-101.87462 73,-107"
         inkscape:path-effect="#path-effect4168"
         id="path4166"
         d="m 150.5,862.33867 c -0.93916,-0.29444 -0.64635,-4.29859 0.59956,-10.98879 0.62295,-3.3451 1.48502,-7.3638 2.59213,-11.92649 1.10711,-4.56269 2.45892,-9.67009 4.11201,-15.17655 2.64936,-8.8501 6.06444,-18.81845 10.97356,-28.91056 0.87318,-1.79507 1.77754,-3.5584 2.71281,-5.28498 2.87468,-5.34469 6.13938,-10.35412 9.7067,-14.74369 3.56732,-4.38957 7.43572,-8.15717 11.39814,-11.18918 4.04196,-3.06233 8.13616,-5.2319 11.89101,-6.72767 3.75485,-1.49577 7.17109,-2.32283 10.00128,-2.741 2.83018,-0.41818 5.07709,-0.43319 6.60963,-0.26373 1.53254,0.16945 2.35365,0.51795 2.40317,0.95264 0.0495,0.43469 -0.67212,0.93052 -2.01181,1.54926 -1.33969,0.61874 -3.29962,1.36678 -5.70531,2.40856 -2.40568,1.04179 -5.25999,2.38221 -8.3268,4.20315 -3.06682,1.82095 -6.34763,4.12534 -9.5106,7.05378 -3.19453,2.91885 -6.3105,6.44038 -9.26623,10.51837 -2.95574,4.078 -5.7528,8.71199 -8.4045,13.68485 -0.85505,1.61587 -1.69204,3.2677 -2.51209,4.95216 -4.61042,9.47024 -8.22587,18.94181 -11.45953,27.42311 -2.00454,5.2689 -3.83175,10.16086 -5.51163,14.51144 -1.67988,4.35058 -3.21171,8.1594 -4.57506,11.27877 -2.7267,6.23874 -4.77728,9.71099 -5.71644,9.41655 z"
         style="fill:#507aa1;fill-opacity:1;fill-rule:evenodd;stroke:none" />
      <path
         sodipodi:nodetypes="cc"
         inkscape:connector-curvature="0"
         inkscape:original-d="m 173.21311,827.66572 c 27.92529,0.27303 37.92827,4.24621 28.92001,-30.82315"
         inkscape:path-effect="#path-effect4206"
         id="path4204"
         d="m 173.21311,827.66572 c 0.01,-1.0214 1.8479,-1.95602 4.97841,-2.66581 1.56525,-0.3549 3.44817,-0.6534 5.55574,-0.91723 2.10758,-0.26384 4.43835,-0.49254 6.89963,-0.76085 1.87928,-0.21579 3.71966,-0.41798 5.36983,-0.84983 1.16986,-0.3464 2.14974,-0.63343 2.66817,-1.079 0.0655,-0.0411 0.13048,-0.0883 0.19466,-0.14091 0.33995,-0.27855 0.64701,-0.69765 0.87203,-1.14049 0.49292,-0.8617 0.66402,-2.20813 0.85633,-3.73117 0.25702,-2.51089 0.23364,-4.95673 0.17381,-7.22877 -0.0598,-2.27204 -0.15558,-4.36677 -0.15192,-6.15387 0.004,-1.7871 0.1038,-3.26472 0.34667,-4.32236 0.24287,-1.05764 0.62463,-1.6962 1.15665,-1.83286 0.53202,-0.13666 1.17467,0.23561 1.8969,1.05163 0.72223,0.81602 1.52792,2.07534 2.34734,3.74865 0.81943,1.67331 1.65551,3.76284 2.34525,6.26102 0.68974,2.49818 1.23261,5.40878 1.35292,8.69964 0.10604,2.13862 -0.14611,4.68119 -1.21817,7.44197 -0.75083,1.81595 -1.94461,3.48871 -3.54934,4.84648 -0.30294,0.25632 -0.61872,0.49995 -0.94652,0.73012 -2.22206,1.44489 -4.42164,2.17014 -6.3569,2.46566 -2.62974,0.45295 -5.00396,0.48393 -7.09223,0.38327 -2.70862,-0.11831 -5.15891,-0.39942 -7.31463,-0.74668 -2.15572,-0.34725 -4.01834,-0.7611 -5.55221,-1.19786 -3.06774,-0.87353 -4.84241,-1.83935 -4.83242,-2.86075 z"
         style="fill:#cf3721;fill-opacity:1;fill-rule:evenodd;stroke:none" />
      <path
         sodipodi:nodetypes="cccccc"
         inkscape:connector-curvature="0"
         inkscape:original-d="m 172.4171,815.53128 c 11.59191,-0.26037 26.66938,2.57766 13.88817,-19.34861 l 0,0 0,0 0,0 0,0"
         inkscape:path-effect="#path-effect4232"
         id="path4230"
         d="m 172.4171,815.53128 c -0.0206,-0.91469 0.87209,-1.79641 2.44917,-2.52961 1.57708,-0.73321 3.82509,-1.28251 6.23751,-1.81926 1.0641,-0.28303 2.10756,-0.49325 2.97893,-0.70738 0.87137,-0.21412 1.5675,-0.43204 1.95392,-0.81694 0.0689,-0.0806 0.12811,-0.12498 0.14464,-0.12342 0.0118,0.001 0.001,0.0254 -0.0415,0.0723 0.0815,0.1289 0.0886,-0.24074 0.20861,-0.84202 0.13448,-1.29028 -0.0376,-2.63406 -0.25787,-3.971 -0.22028,-1.33693 -0.48701,-2.66087 -0.64168,-3.8526 -0.15468,-1.19173 -0.19979,-2.24742 -0.0702,-3.06652 0.12965,-0.8191 0.42979,-1.40257 0.9266,-1.69217 0.49681,-0.2896 1.15155,-0.26826 1.93232,0.038 0.78076,0.3062 1.69173,0.89634 2.66147,1.81005 0.96973,0.91372 2.00155,2.15498 2.924,3.80526 0.92246,1.65028 1.73507,3.71651 2.14343,6.23795 0.28338,1.67291 0.0867,3.76275 -0.93791,6.06235 -0.41903,0.78516 -0.91216,1.49527 -1.46686,2.1185 -0.77913,0.87541 -1.66165,1.55925 -2.59614,2.05056 -1.959,0.95199 -3.78443,1.41054 -5.38553,1.58944 -1.6011,0.17889 -2.97972,0.0808 -4.13418,-0.11394 -2.88558,-0.32597 -5.06925,-1.01367 -6.59625,-1.75716 -1.52699,-0.7435 -2.41197,-1.57766 -2.43252,-2.49235 z"
         style="fill:#cf3721;fill-opacity:1;fill-rule:evenodd;stroke:none" />
      <path
         sodipodi:nodetypes="cc"
         inkscape:connector-curvature="0"
         inkscape:original-d="m 178.55786,840.11461 c 36.25343,0.34186 49.23959,5.31665 37.5448,-38.59344"
         inkscape:path-effect="#path-effect4206-6"
         id="path4204-3"
         d="m 178.55786,840.11461 c 0.01,-1.03138 2.39089,-1.97055 6.44737,-2.66422 2.02823,-0.34684 4.46992,-0.63211 7.21282,-0.88552 2.74289,-0.25341 5.78555,-0.47443 9.01652,-0.75858 2.47485,-0.22775 4.94995,-0.45755 7.25545,-1.00223 1.64473,-0.42838 3.10661,-0.84573 4.05134,-1.5544 0.0426,-0.0272 0.085,-0.0553 0.12706,-0.0844 0.72376,-0.50037 1.33872,-1.25863 1.73637,-2.06954 0.7068,-1.28798 0.9413,-3.11383 1.15047,-5.0868 0.28352,-3.23967 0.17732,-6.35969 0.006,-9.23225 -0.17128,-2.87257 -0.40715,-5.49416 -0.52724,-7.71675 -0.12009,-2.22259 -0.12829,-4.0444 0.0388,-5.33819 0.16707,-1.2938 0.50442,-2.06061 1.02981,-2.20054 0.52539,-0.13993 1.20011,0.35409 1.98793,1.39987 0.78781,1.04577 1.69376,2.64287 2.63208,4.74745 0.93832,2.10459 1.91291,4.71895 2.71668,7.82285 0.80378,3.10391 1.43621,6.70124 1.54172,10.74784 0.097,2.61715 -0.22531,5.67207 -1.54272,8.903 -1.03641,2.39057 -2.72005,4.53943 -4.96214,6.15678 -0.13036,0.094 -0.26234,0.18609 -0.39588,0.27613 -2.63385,1.67218 -5.29118,2.51092 -7.66527,2.88384 -3.25355,0.56371 -6.24677,0.62529 -8.92317,0.54171 -3.47013,-0.0966 -6.62904,-0.3828 -9.41887,-0.74049 -2.78983,-0.35768 -5.21202,-0.7874 -7.20981,-1.23683 -3.9956,-0.89888 -6.31508,-1.87733 -6.30535,-2.90871 z"
         style="fill:#cf3721;fill-opacity:1;fill-rule:evenodd;stroke:none" />
    </g>
  </g>
  <g
     inkscape:groupmode="layer"
     id="layer3"
     inkscape:label="PLACE YOUR PICTOGRAM HERE"
     style="display:inline" />
  <g
     inkscape:groupmode="layer"
     id="layer2"
     inkscape:label="BADGE"
     style="display:none"
     sodipodi:insensitive="true">
    <g
       style="display:inline"
       transform="translate(-340.00001,-581)"
       id="g4394"
       clip-path="none">
      <g
         id="g855">
        <g
           inkscape:groupmode="maskhelper"
           id="g870"
           clip-path="url(#clipPath873)"
           style="opacity:0.6;filter:url(#filter891)">
          <path
             transform="matrix(1.4999992,0,0,1.4999992,-29.999795,-237.54282)"
             d="m 264,552.36218 c 0,6.62742 -5.37258,12 -12,12 -6.62742,0 -12,-5.37258 -12,-12 0,-6.62741 5.37258,-12 12,-12 6.62742,0 12,5.37259 12,12 z"
             sodipodi:ry="12"
             sodipodi:rx="12"
             sodipodi:cy="552.36218"
             sodipodi:cx="252"
             id="path844"
             style="color:#000000;fill:#000000;fill-opacity:1;fill-rule:nonzero;stroke:none;stroke-width:4;marker:none;visibility:visible;display:inline;overflow:visible;enable-background:accumulate"
             sodipodi:type="arc" />
        </g>
        <g
           id="g862">
          <path
             sodipodi:type="arc"
             style="color:#000000;fill:#f5f5f5;fill-opacity:1;fill-rule:nonzero;stroke:none;stroke-width:4;marker:none;visibility:visible;display:inline;overflow:visible;enable-background:accumulate"
             id="path4398"
             sodipodi:cx="252"
             sodipodi:cy="552.36218"
             sodipodi:rx="12"
             sodipodi:ry="12"
             d="m 264,552.36218 c 0,6.62742 -5.37258,12 -12,12 -6.62742,0 -12,-5.37258 -12,-12 0,-6.62741 5.37258,-12 12,-12 6.62742,0 12,5.37259 12,12 z"
             transform="matrix(1.4999992,0,0,1.4999992,-29.999795,-238.54282)" />
          <path
             transform="matrix(1.25,0,0,1.25,33,-100.45273)"
             d="m 264,552.36218 c 0,6.62742 -5.37258,12 -12,12 -6.62742,0 -12,-5.37258 -12,-12 0,-6.62741 5.37258,-12 12,-12 6.62742,0 12,5.37259 12,12 z"
             sodipodi:ry="12"
             sodipodi:rx="12"
             sodipodi:cy="552.36218"
             sodipodi:cx="252"
             id="path4400"
             style="color:#000000;fill:#dd4814;fill-opacity:1;fill-rule:nonzero;stroke:none;stroke-width:4;marker:none;visibility:visible;display:inline;overflow:visible;enable-background:accumulate"
             sodipodi:type="arc" />
          <path
             sodipodi:type="star"
             style="color:#000000;fill:#f5f5f5;fill-opacity:1;fill-rule:nonzero;stroke:none;stroke-width:3;marker:none;visibility:visible;display:inline;overflow:visible;enable-background:accumulate"
             id="path4459"
             sodipodi:sides="5"
             sodipodi:cx="666.19574"
             sodipodi:cy="589.50385"
             sodipodi:r1="7.2431178"
             sodipodi:r2="4.3458705"
             sodipodi:arg1="1.0471976"
             sodipodi:arg2="1.6755161"
             inkscape:flatsided="false"
             inkscape:rounded="0.1"
             inkscape:randomized="0"
             d="m 669.8173,595.77657 c -0.39132,0.22593 -3.62645,-1.90343 -4.07583,-1.95066 -0.44938,-0.0472 -4.05653,1.36297 -4.39232,1.06062 -0.3358,-0.30235 0.68963,-4.03715 0.59569,-4.47913 -0.0939,-0.44198 -2.5498,-3.43681 -2.36602,-3.8496 0.18379,-0.41279 4.05267,-0.59166 4.44398,-0.81759 0.39132,-0.22593 2.48067,-3.48704 2.93005,-3.4398 0.44938,0.0472 1.81505,3.67147 2.15084,3.97382 0.3358,0.30236 4.08294,1.2817 4.17689,1.72369 0.0939,0.44198 -2.9309,2.86076 -3.11469,3.27355 -0.18379,0.41279 0.0427,4.27917 -0.34859,4.5051 z"
             transform="matrix(1.511423,-0.16366377,0.16366377,1.511423,-755.37346,-191.93651)" />
        </g>
      </g>
    </g>
  </g>
  <style
     id="style3220"
     type="text/css">
		.st1 {fill:none;stroke:none;stroke-linecap:round;stroke-linejoin:round;stroke-width:0.75}
		.st2 {fill:none;stroke:none;stroke-linecap:round;stroke-linejoin:round;stroke-width:0.25}
		.st3 {fill:#404040;font-family:Century Gothic;font-size:2.50001em;font-style:italic}
		.st4 {fill:#009dbc;font-family:Calibri;font-size:4.00001em}
		.st5 {fill:#ffffff;stroke:none;stroke-linecap:round;stroke-linejoin:round;stroke-width:0.25}
		.st6 {fill:#009dbc;font-family:Times New Roman;font-size:4.99999em}
		.st7 {fill:none;fill-rule:evenodd;font-size:12px;overflow:visible;stroke-linecap:square;stroke-miterlimit:3}
	</style>
</svg>
